RobotoSerifMicro-RegularWideItalic.ufo
<glyph name="exclam" format="2">
  <advance width="399"/>
  <unicode hex="0021"/>
  <outline>
    <contour>
      <point x="380" y="755" type="line"/>
      <point x="351" y="573"/>
      <point x="313" y="476"/>
      <point x="279" y="258" type="curve"/>
      <point x="203" y="258" type="line"/>
      <point x="237" y="476"/>
      <point x="229" y="572"/>
      <point x="258" y="755" type="curve"/>
    </contour>
    <component base="period" xOffset="37"/>
  </outline>
</glyph>
<glyph name="period" format="2">
  <advance width="351"/>
  <unicode hex="002E"/>
  <outline>
    <contour>
      <point x="265" y="74" type="curve" smooth="yes"/>
      <point x="265" y="117"/>
      <point x="242" y="147"/>
      <point x="194" y="147" type="curve" smooth="yes"/>
      <point x="142" y="147"/>
      <point x="107" y="113"/>
      <point x="107" y="63" type="curve" smooth="yes"/>
      <point x="107" y="20"/>
      <point x="130" y="-10"/>
      <point x="178" y="-10" type="curve" smooth="yes"/>
      <point x="230" y="-10"/>
      <point x="265" y="24"/>
    </contour>
  </outline>
</glyph>
<glyph name="five" format="2">
  <advance width="668"/>
  <unicode hex="0035"/>
  <outline>
    <contour>
      <point x="315" y="-90" type="curve" smooth="yes"/>
      <point x="190" y="-90"/>
      <point x="94" y="-34"/>
      <point x="61" y="56" type="curve"/>
      <point x="134" y="93" type="line"/>
      <point x="172" y="16"/>
      <point x="230" y="-26"/>
      <point x="327" y="-26" type="curve" smooth="yes"/>
      <point x="453" y="-26"/>
      <point x="536" y="52"/>
      <point x="536" y="187" type="curve" smooth="yes"/>
      <point x="536" y="288"/>
      <point x="488" y="338"/>
      <point x="399" y="338" type="curve" smooth="yes"/>
      <point x="328.0" y="338.0"/>
      <point x="270" y="302"/>
      <point x="225" y="242" type="curve"/>
      <point x="164" y="242" type="line"/>
      <point x="227" y="639" type="line"/>
      <point x="660" y="639" type="line"/>
      <point x="633" y="565" type="line"/>
      <point x="255" y="565" type="line"/>
      <point x="288" y="619" type="line"/>
      <point x="232" y="277" type="line"/>
      <point x="228" y="276"/>
      <point x="219" y="274"/>
      <point x="205" y="272" type="curve"/>
      <point x="263" y="354"/>
      <point x="339" y="396"/>
      <point x="432" y="396" type="curve" smooth="yes"/>
      <point x="573.0" y="396.0"/>
      <point x="630" y="305"/>
      <point x="630" y="197" type="curve" smooth="yes"/>
      <point x="630.0" y="8.0"/>
      <point x="489" y="-90"/>
    </contour>
  </outline>
</glyph>
<glyph name="seven" format="2">
  <advance width="679"/>
  <unicode hex="0037"/>
  <outline>
    <contour>
      <point x="380" y="564" type="line" smooth="yes"/>
      <point x="276" y="564"/>
      <point x="249" y="559"/>
      <point x="238" y="523" type="curve" smooth="yes"/>
      <point x="209" y="421" type="line"/>
      <point x="147" y="421" type="line"/>
      <point x="182" y="639" type="line"/>
      <point x="736" y="639" type="line"/>
      <point x="724" y="563" type="line"/>
      <point x="523" y="395"/>
      <point x="407" y="256"/>
      <point x="335" y="-77" type="curve"/>
      <point x="236" y="-77" type="line"/>
      <point x="314" y="254"/>
      <point x="502" y="460"/>
      <point x="679" y="582" type="curve"/>
      <point x="683" y="564" type="line"/>
    </contour>
  </outline>
</glyph>
<glyph name="nine" format="2">
  <advance width="681"/>
  <unicode hex="0039"/>
  <outline>
    <contour>
      <point x="429" y="660" type="curve" smooth="yes"/>
      <point x="572" y="660"/>
      <point x="677" y="579"/>
      <point x="677" y="395" type="curve" smooth="yes"/>
      <point x="677" y="145"/>
      <point x="506" y="-67"/>
      <point x="115" y="-90" type="curve"/>
      <point x="125" y="-27" type="line"/>
      <point x="350" y="-10"/>
      <point x="455" y="51"/>
      <point x="529" y="165" type="curve" smooth="yes"/>
      <point x="560" y="213"/>
      <point x="586" y="297"/>
      <point x="586" y="395" type="curve" smooth="yes"/>
      <point x="586" y="530"/>
      <point x="527" y="596"/>
      <point x="417" y="596" type="curve" smooth="yes"/>
      <point x="360" y="596"/>
      <point x="313" y="575"/>
      <point x="280" y="537" type="curve" smooth="yes"/>
      <point x="248" y="501"/>
      <point x="230" y="450"/>
      <point x="230" y="389" type="curve" smooth="yes"/>
      <point x="230" y="305"/>
      <point x="268" y="240"/>
      <point x="370" y="240" type="curve" smooth="yes"/>
      <point x="459" y="240"/>
      <point x="531" y="278"/>
      <point x="610" y="399" type="curve"/>
      <point x="612" y="357" type="line"/>
      <point x="551" y="246"/>
      <point x="465" y="182"/>
      <point x="350" y="182" type="curve" smooth="yes"/>
      <point x="205" y="182"/>
      <point x="137" y="267"/>
      <point x="137" y="378" type="curve" smooth="yes"/>
      <point x="137" y="538"/>
      <point x="247" y="660"/>
    </contour>
  </outline>
</glyph>
<glyph name="question" format="2">
  <advance width="707"/>
  <unicode hex="003F"/>
  <guideline x="303" y="237" angle="81" identifier="wVzXv8UrM7"/>
  <guideline x="343" y="163" angle="81" identifier="Fm0irGUHPI"/>
  <outline>
    <contour>
      <point x="337" y="413" type="curve"/>
      <point x="312" y="258" type="line"/>
      <point x="402" y="258" type="line"/>
      <point x="419" y="365" type="line"/>
      <point x="575" y="386"/>
      <point x="716" y="448"/>
      <point x="716" y="591" type="curve" smooth="yes"/>
      <point x="716" y="701"/>
      <point x="637" y="762"/>
      <point x="482" y="762" type="curve" smooth="yes"/>
      <point x="385.0" y="762.0"/>
      <point x="276" y="732"/>
      <point x="206" y="690" type="curve"/>
      <point x="185" y="553" type="line"/>
      <point x="275" y="553" type="line"/>
      <point x="298" y="702" type="line"/>
      <point x="242" y="699"/>
      <point x="234" y="638"/>
      <point x="233" y="624" type="curve"/>
      <point x="298" y="672"/>
      <point x="379" y="698"/>
      <point x="469" y="698" type="curve" smooth="yes"/>
      <point x="574" y="698"/>
      <point x="621" y="655"/>
      <point x="621" y="583" type="curve" smooth="yes"/>
      <point x="621" y="462"/>
      <point x="494" y="429"/>
    </contour>
    <component base="period" xOffset="178" yOffset="-1"/>
  </outline>
</glyph>
<glyph name="backslash" format="2">
  <advance width="529"/>
  <unicode hex="005C"/>
  <outline>
    <contour>
      <point x="236" y="780" type="line"/>
      <point x="154" y="780" type="line"/>
      <point x="393" y="-158" type="line"/>
      <point x="474" y="-158" type="line"/>
    </contour>
  </outline>
</glyph>
<glyph name="asciicircum" format="2">
  <advance width="664"/>
  <unicode hex="005E"/>
  <outline>
    <contour>
      <point x="210" y="314.0" type="line"/>
      <point x="452" y="685.0" type="line"/>
      <point x="449" y="710.0" type="line"/>
      <point x="383" y="710.0" type="line"/>
      <point x="116" y="314.0" type="line"/>
    </contour>
    <contour>
      <point x="553" y="314.0" type="line"/>
      <point x="646" y="314.0" type="line"/>
      <point x="496" y="710.0" type="line"/>
      <point x="427" y="710.0" type="line"/>
      <point x="418" y="686.0" type="line"/>
    </contour>
  </outline>
</glyph>
<glyph name="grave" format="2">
  <advance width="613"/>
  <unicode hex="0060"/>
  <anchor x="267" y="531" name="_top"/>
  <outline>
    <contour>
      <point x="329" y="805" type="curve" smooth="yes"/>
      <point x="395" y="685" type="line"/>
      <point x="391" y="661" type="line"/>
      <point x="353" y="661" type="line"/>
      <point x="228" y="758" type="line" smooth="yes"/>
      <point x="202" y="777"/>
      <point x="184" y="795"/>
      <point x="184" y="820" type="curve" smooth="yes"/>
      <point x="184" y="846"/>
      <point x="209" y="868"/>
      <point x="248" y="868" type="curve" smooth="yes"/>
      <point x="293" y="868"/>
      <point x="308" y="842"/>
    </contour>
  </outline>
</glyph>
<glyph name="currency" format="2">
  <advance width="694"/>
  <unicode hex="00A4"/>
  <outline>
    <contour>
      <point x="33" y="116" type="line"/>
      <point x="218" y="236" type="line"/>
      <point x="160" y="280" type="line"/>
      <point x="-17" y="168" type="line"/>
    </contour>
    <contour>
      <point x="108" y="593" type="line"/>
      <point x="208" y="482" type="line"/>
      <point x="284" y="520" type="line"/>
      <point x="178" y="637" type="line"/>
    </contour>
    <contour>
      <point x="347" y="239" type="curve" smooth="yes"/>
      <point x="249" y="239"/>
      <point x="201" y="281"/>
      <point x="201" y="350" type="curve" smooth="yes"/>
      <point x="201" y="440"/>
      <point x="261" y="508"/>
      <point x="378" y="508" type="curve" smooth="yes"/>
      <point x="476" y="508"/>
      <point x="524" y="466"/>
      <point x="524" y="397" type="curve" smooth="yes"/>
      <point x="524" y="307"/>
      <point x="463" y="239"/>
    </contour>
    <contour>
      <point x="341" y="176" type="curve" smooth="yes"/>
      <point x="485" y="176"/>
      <point x="611" y="284"/>
      <point x="611" y="390" type="curve" smooth="yes"/>
      <point x="611" y="482"/>
      <point x="522" y="571"/>
      <point x="383" y="571" type="curve" smooth="yes"/>
      <point x="239" y="571"/>
      <point x="113" y="463"/>
      <point x="113" y="357" type="curve" smooth="yes"/>
      <point x="113" y="265"/>
      <point x="202" y="176"/>
    </contour>
    <contour>
      <point x="543" y="109" type="line"/>
      <point x="613" y="153" type="line"/>
      <point x="512" y="264" type="line"/>
      <point x="436" y="226" type="line"/>
    </contour>
    <contour>
      <point x="737" y="575" type="line"/>
      <point x="688" y="627" type="line"/>
      <point x="502" y="511" type="line"/>
      <point x="561" y="467" type="line"/>
    </contour>
  </outline>
</glyph>
<glyph name="acute" format="2">
  <advance width="613"/>
  <unicode hex="00B4"/>
  <anchor x="278" y="527" name="_top"/>
  <outline>
    <contour>
      <point x="311" y="809" type="curve" smooth="yes"/>
      <point x="204" y="685" type="line"/>
      <point x="197" y="661" type="line"/>
      <point x="231" y="661" type="line"/>
      <point x="387" y="748" type="line" smooth="yes"/>
      <point x="429" y="771"/>
      <point x="463" y="788"/>
      <point x="463" y="821" type="curve" smooth="yes"/>
      <point x="463" y="846"/>
      <point x="440" y="867"/>
      <point x="404" y="867" type="curve" smooth="yes"/>
      <point x="363" y="867"/>
      <point x="339" y="842"/>
    </contour>
  </outline>
</glyph>
<glyph name="thorn" format="2">
  <advance width="828"/>
  <unicode hex="00FE"/>
  <outline>
    <contour>
      <point x="-106" y="-223" type="line"/>
      <point x="227" y="-223" type="line"/>
      <point x="240" y="-176" type="line"/>
      <point x="212" y="-176" type="line" smooth="yes"/>
      <point x="165" y="-176"/>
      <point x="109" y="-173"/>
      <point x="111" y="-166" type="curve" smooth="yes"/>
      <point x="399" y="780" type="line"/>
      <point x="179" y="780" type="line"/>
      <point x="164" y="727" type="line"/>
      <point x="175" y="725" type="line" smooth="yes"/>
      <point x="237" y="714"/>
      <point x="281" y="701"/>
      <point x="276" y="682" type="curve"/>
      <point x="38" y="-100" type="line"/>
      <point x="20" y="-162"/>
      <point x="-21" y="-176"/>
      <point x="-88" y="-176" type="curve" smooth="yes"/>
      <point x="-92" y="-176" type="line"/>
    </contour>
    <contour>
      <point x="417" y="-13" type="curve" smooth="yes"/>
      <point x="651" y="-13"/>
      <point x="771" y="217"/>
      <point x="771" y="382" type="curve" smooth="yes"/>
      <point x="771" y="495"/>
      <point x="712" y="575"/>
      <point x="562" y="575" type="curve" smooth="yes"/>
      <point x="443" y="575"/>
      <point x="337" y="493"/>
      <point x="250" y="383" type="curve"/>
      <point x="258" y="349" type="line"/>
      <point x="354" y="455"/>
      <point x="432" y="516"/>
      <point x="542" y="516" type="curve" smooth="yes"/>
      <point x="638" y="516"/>
      <point x="671" y="468"/>
      <point x="671" y="382" type="curve" smooth="yes"/>
      <point x="671" y="248"/>
      <point x="591" y="47"/>
      <point x="415" y="47" type="curve" smooth="yes"/>
      <point x="298" y="47"/>
      <point x="241" y="109"/>
      <point x="209" y="201" type="curve"/>
      <point x="181" y="173" type="line"/>
      <point x="212" y="67"/>
      <point x="283" y="-13"/>
    </contour>
  </outline>
</glyph>
<glyph name="dcroat" format="2">
  <advance width="833"/>
  <unicode hex="0111"/>
  <outline>
    <contour>
      <point x="265" y="-12" type="curve" smooth="yes"/>
      <point x="384" y="-12"/>
      <point x="491" y="72"/>
      <point x="578" y="182" type="curve"/>
      <point x="569" y="216" type="line"/>
      <point x="473" y="110"/>
      <point x="397" y="47"/>
      <point x="286" y="47" type="curve" smooth="yes"/>
      <point x="190" y="47"/>
      <point x="157" y="95"/>
      <point x="157" y="180" type="curve" smooth="yes"/>
      <point x="157" y="315"/>
      <point x="237" y="516"/>
      <point x="413" y="516" type="curve" smooth="yes"/>
      <point x="530" y="516"/>
      <point x="586" y="456"/>
      <point x="619" y="364" type="curve"/>
      <point x="646" y="392" type="line"/>
      <point x="616" y="498"/>
      <point x="544" y="576"/>
      <point x="411" y="576" type="curve" smooth="yes"/>
      <point x="177" y="576"/>
      <point x="56" y="346"/>
      <point x="56" y="180" type="curve" smooth="yes"/>
      <point x="56" y="68"/>
      <point x="116" y="-12"/>
    </contour>
    <contour>
      <point x="618" y="0" type="curve"/>
      <point x="661" y="0"/>
      <point x="703" y="0"/>
      <point x="747" y="0" type="curve"/>
      <point x="759" y="57" type="line"/>
      <point x="717" y="57"/>
      <point x="677" y="57"/>
      <point x="637" y="57" type="curve"/>
      <point x="619" y="57"/>
      <point x="612" y="62"/>
      <point x="612" y="73" type="curve" smooth="yes"/>
      <point x="612" y="86"/>
      <point x="627" y="131"/>
      <point x="663" y="248" type="curve" smooth="yes"/>
      <point x="825" y="780" type="line"/>
      <point x="731" y="780" type="line"/>
      <point x="547" y="176" type="line"/>
      <point x="547" y="164" type="line"/>
      <point x="541" y="112"/>
      <point x="537" y="64"/>
      <point x="537" y="53" type="curve" smooth="yes"/>
      <point x="537" y="17"/>
      <point x="566" y="0"/>
    </contour>
    <contour>
      <point x="421" y="706" type="line"/>
      <point x="406" y="653" type="line"/>
      <point x="891" y="653" type="line"/>
      <point x="906" y="706" type="line"/>
    </contour>
  </outline>
</glyph>
<glyph name="iogonek" format="2">
  <advance width="422"/>
  <unicode hex="012F"/>
  <outline>
    <contour>
      <point x="284" y="39" type="line"/>
      <point x="25" y="-72"/>
      <point x="-11" y="-103"/>
      <point x="-11" y="-164" type="curve" smooth="yes"/>
      <point x="-11" y="-221"/>
      <point x="41" y="-252"/>
      <point x="135" y="-252" type="curve" smooth="yes"/>
      <point x="210" y="-252"/>
      <point x="259" y="-226"/>
      <point x="306" y="-191" type="curve"/>
      <point x="273" y="-156" type="line"/>
      <point x="246" y="-174"/>
      <point x="212" y="-200"/>
      <point x="160" y="-200" type="curve" smooth="yes"/>
      <point x="116" y="-200"/>
      <point x="93" y="-183"/>
      <point x="93" y="-156" type="curve" smooth="yes"/>
      <point x="93" y="-113"/>
      <point x="131" y="-82"/>
      <point x="305" y="7" type="curve"/>
    </contour>
    <component base="i"/>
  </outline>
</glyph>
<glyph name="dotlessi" format="2">
  <advance width="422"/>
  <unicode hex="0131"/>
  <anchor x="221" y="565" name="top"/>
  <outline>
    <contour>
      <point x="222" y="218" type="curve" smooth="yes"/>
      <point x="326" y="565" type="line"/>
      <point x="107" y="565" type="line"/>
      <point x="92" y="512" type="line"/>
      <point x="103" y="510" type="line" smooth="yes"/>
      <point x="165" y="499"/>
      <point x="209" y="486"/>
      <point x="204" y="467" type="curve" smooth="yes"/>
      <point x="132" y="223" type="line" smooth="yes"/>
      <point x="99" y="117"/>
      <point x="89" y="86"/>
      <point x="89" y="58" type="curve" smooth="yes"/>
      <point x="89" y="20"/>
      <point x="125" y="0"/>
      <point x="185" y="0" type="curve" smooth="yes"/>
      <point x="229" y="0"/>
      <point x="273" y="0"/>
      <point x="317" y="0" type="curve"/>
      <point x="329" y="57" type="line"/>
      <point x="289" y="57"/>
      <point x="249" y="57"/>
      <point x="209" y="57" type="curve" smooth="yes"/>
      <point x="191" y="57"/>
      <point x="183" y="62"/>
      <point x="183" y="74" type="curve" smooth="yes"/>
      <point x="183" y="86"/>
      <point x="192" y="121"/>
    </contour>
  </outline>
</glyph>
<glyph name="Lslash" format="2">
  <advance width="816"/>
  <unicode hex="0141"/>
  <outline>
    <contour>
      <point x="-15" y="183" type="line"/>
      <point x="668" y="486" type="line"/>
      <point x="688" y="551" type="line"/>
      <point x="5" y="248" type="line"/>
    </contour>
    <component base="L" xOffset="4"/>
  </outline>
</glyph>
<glyph name="lslash" format="2">
  <advance width="535"/>
  <unicode hex="0142"/>
  <outline>
    <contour>
      <point x="26" y="224" type="line"/>
      <point x="525" y="505" type="line"/>
      <point x="546" y="582" type="line"/>
      <point x="46" y="301" type="line"/>
    </contour>
    <component base="l" xOffset="43"/>
  </outline>
</glyph>
<glyph name="Ohorn" format="2">
  <advance width="1051"/>
  <unicode hex="01A0"/>
  <anchor x="539" y="742" name="top"/>
  <outline>
    <contour>
      <point x="439" y="33" type="curve" smooth="yes"/>
      <point x="259" y="33"/>
      <point x="172" y="116"/>
      <point x="172" y="256" type="curve" smooth="yes"/>
      <point x="172" y="308"/>
      <point x="179" y="366"/>
      <point x="203" y="424" type="curve" smooth="yes"/>
      <point x="262" y="590"/>
      <point x="381" y="677"/>
      <point x="561" y="677" type="curve" smooth="yes"/>
      <point x="741" y="677"/>
      <point x="828" y="594"/>
      <point x="828" y="454" type="curve" smooth="yes"/>
      <point x="828" y="402"/>
      <point x="820" y="344"/>
      <point x="797" y="286" type="curve" smooth="yes"/>
      <point x="738" y="120"/>
      <point x="619" y="33"/>
    </contour>
    <contour>
      <point x="435" y="-25" type="curve" smooth="yes"/>
      <point x="782" y="-25"/>
      <point x="933" y="234"/>
      <point x="933" y="433" type="curve" smooth="yes"/>
      <point x="933" y="536"/>
      <point x="868" y="616"/>
      <point x="745" y="678" type="curve"/>
      <point x="780" y="638" type="line"/>
      <point x="799" y="669" type="line"/>
      <point x="732" y="681" type="line"/>
      <point x="807" y="651"/>
      <point x="847" y="632"/>
      <point x="914" y="632" type="curve" smooth="yes"/>
      <point x="998" y="632"/>
      <point x="1103" y="662"/>
      <point x="1167" y="899" type="curve"/>
      <point x="1073" y="899" type="line"/>
      <point x="1021" y="734"/>
      <point x="974" y="690"/>
      <point x="882" y="690" type="curve" smooth="yes"/>
      <point x="784" y="690"/>
      <point x="724" y="735"/>
      <point x="565" y="735" type="curve" smooth="yes"/>
      <point x="217" y="735"/>
      <point x="67" y="476"/>
      <point x="67" y="272" type="curve" smooth="yes"/>
      <point x="67" y="101"/>
      <point x="191" y="-25"/>
    </contour>
  </outline>
</glyph>
<glyph name="oogonek" format="2">
  <advance width="775"/>
  <unicode hex="01EB"/>
  <outline>
    <contour>
      <point x="339" y="-252" type="curve" smooth="yes"/>
      <point x="415" y="-252"/>
      <point x="463" y="-226"/>
      <point x="510" y="-191" type="curve"/>
      <point x="478" y="-156" type="line"/>
      <point x="450" y="-174"/>
      <point x="416" y="-200"/>
      <point x="364" y="-200" type="curve" smooth="yes"/>
      <point x="320" y="-200"/>
      <point x="298" y="-183"/>
      <point x="298" y="-156" type="curve" smooth="yes"/>
      <point x="298" y="-78"/>
      <point x="465" y="-28"/>
      <point x="582" y="66" type="curve" smooth="yes"/>
      <point x="671" y="138"/>
      <point x="718" y="251"/>
      <point x="718" y="357" type="curve" smooth="yes"/>
      <point x="718" y="490"/>
      <point x="615" y="575"/>
      <point x="437" y="575" type="curve" smooth="yes"/>
      <point x="182" y="575"/>
      <point x="56" y="379"/>
      <point x="56" y="205" type="curve" smooth="yes"/>
      <point x="56" y="72"/>
      <point x="159" y="-13"/>
      <point x="338" y="-13" type="curve" smooth="yes"/>
      <point x="385" y="-13"/>
      <point x="428" y="-6"/>
      <point x="466" y="5" type="curve"/>
      <point x="499" y="38" type="line"/>
      <point x="231" y="-74"/>
      <point x="193" y="-106"/>
      <point x="193" y="-167" type="curve" smooth="yes"/>
      <point x="193" y="-220"/>
      <point x="245" y="-252"/>
    </contour>
    <contour>
      <point x="348" y="45" type="curve" smooth="yes"/>
      <point x="212" y="45"/>
      <point x="157" y="97"/>
      <point x="157" y="199" type="curve" smooth="yes"/>
      <point x="157" y="257"/>
      <point x="169" y="322"/>
      <point x="197" y="377" type="curve" smooth="yes"/>
      <point x="238" y="457"/>
      <point x="310" y="517"/>
      <point x="427" y="517" type="curve" smooth="yes"/>
      <point x="563" y="517"/>
      <point x="618" y="465"/>
      <point x="618" y="363" type="curve" smooth="yes"/>
      <point x="618" y="305"/>
      <point x="606" y="240"/>
      <point x="577" y="185" type="curve" smooth="yes"/>
      <point x="537" y="105"/>
      <point x="465" y="45"/>
    </contour>
  </outline>
</glyph>
<glyph name="breve" format="2">
  <advance width="613"/>
  <unicode hex="02D8"/>
  <anchor x="310" y="517" name="_top"/>
  <outline>
    <contour>
      <point x="310" y="668" type="curve" smooth="yes"/>
      <point x="435" y="668"/>
      <point x="496" y="706"/>
      <point x="518" y="831" type="curve"/>
      <point x="449" y="831" type="line"/>
      <point x="427" y="752"/>
      <point x="403" y="735"/>
      <point x="314" y="735" type="curve" smooth="yes"/>
      <point x="212" y="735"/>
      <point x="206" y="765"/>
      <point x="214" y="831" type="curve"/>
      <point x="143" y="831" type="line"/>
      <point x="138" y="809"/>
      <point x="137" y="797"/>
      <point x="137" y="779" type="curve" smooth="yes"/>
      <point x="137" y="710"/>
      <point x="182" y="668"/>
    </contour>
  </outline>
</glyph>
<glyph name="ring" format="2">
  <advance width="613"/>
  <unicode hex="02DA"/>
  <anchor x="305" y="526" name="_top"/>
  <outline>
    <contour>
      <point x="290" y="680" type="curve" smooth="yes"/>
      <point x="240" y="680"/>
      <point x="210" y="700"/>
      <point x="210" y="738" type="curve" smooth="yes"/>
      <point x="210" y="781"/>
      <point x="237" y="820"/>
      <point x="300" y="820" type="curve" smooth="yes"/>
      <point x="351" y="820"/>
      <point x="380" y="800"/>
      <point x="380" y="762" type="curve" smooth="yes"/>
      <point x="380" y="719"/>
      <point x="353" y="680"/>
    </contour>
    <contour>
      <point x="290" y="634" type="curve" smooth="yes"/>
      <point x="397" y="634"/>
      <point x="464" y="688"/>
      <point x="464" y="758" type="curve" smooth="yes"/>
      <point x="464" y="819"/>
      <point x="411" y="866"/>
      <point x="300" y="866" type="curve" smooth="yes"/>
      <point x="193" y="866"/>
      <point x="127" y="812"/>
      <point x="127" y="742" type="curve" smooth="yes"/>
      <point x="127" y="681"/>
      <point x="180" y="634"/>
    </contour>
  </outline>
</glyph>
<glyph name="Delta" format="2">
  <advance width="889"/>
  <unicode hex="0394"/>
  <outline>
    <contour>
      <point x="-58" y="0" type="line"/>
      <point x="736" y="0" type="line"/>
      <point x="759" y="75" type="line"/>
      <point x="620" y="710" type="line"/>
      <point x="493" y="710" type="line"/>
      <point x="-35" y="75" type="line"/>
    </contour>
    <contour>
      <point x="666" y="46" type="line"/>
      <point x="695" y="71" type="line"/>
      <point x="-6" y="71" type="line"/>
      <point x="19" y="37" type="line"/>
      <point x="560" y="691" type="line"/>
      <point x="525" y="700" type="line"/>
    </contour>
  </outline>
</glyph>
<glyph name="mu" format="2">
  <advance width="808"/>
  <unicode hex="03BC"/>
  <outline>
    <contour>
      <point x="612" y="-11" type="curve" smooth="yes"/>
      <point x="677" y="-11"/>
      <point x="720" y="18"/>
      <point x="758" y="81" type="curve"/>
      <point x="710" y="105" type="line"/>
      <point x="686" y="70"/>
      <point x="666" y="44"/>
      <point x="627" y="44" type="curve"/>
      <point x="598" y="44"/>
      <point x="583" y="53"/>
      <point x="583" y="76" type="curve" smooth="yes"/>
      <point x="583" y="93"/>
      <point x="587" y="109"/>
      <point x="596" y="138" type="curve" smooth="yes"/>
      <point x="726" y="565" type="line"/>
      <point x="632" y="565" type="line"/>
      <point x="504" y="148" type="line"/>
      <point x="506" y="138" type="line"/>
      <point x="500" y="117"/>
      <point x="496" y="94"/>
      <point x="496" y="75" type="curve" smooth="yes"/>
      <point x="496" y="18"/>
      <point x="540" y="-11"/>
    </contour>
    <contour>
      <point x="-37" y="-250" type="line"/>
      <point x="66" y="-250" type="line"/>
      <point x="107" y="-116"/>
      <point x="90" y="-18"/>
      <point x="128" y="162" type="curve"/>
      <point x="114" y="116" type="line"/>
      <point x="114" y="27"/>
      <point x="163" y="-11"/>
      <point x="245" y="-11" type="curve" smooth="yes"/>
      <point x="348" y="-11"/>
      <point x="434" y="61"/>
      <point x="536" y="162" type="curve"/>
      <point x="538" y="194" type="line"/>
      <point x="429" y="104"/>
      <point x="357" y="51"/>
      <point x="269" y="51" type="curve" smooth="yes"/>
      <point x="205" y="51"/>
      <point x="177" y="75"/>
      <point x="177" y="117" type="curve" smooth="yes"/>
      <point x="177" y="137"/>
      <point x="182" y="159"/>
      <point x="192" y="192" type="curve" smooth="yes"/>
      <point x="305" y="565" type="line"/>
      <point x="211" y="565" type="line"/>
    </contour>
  </outline>
</glyph>
<glyph name="thai:baht" format="2">
  <advance width="686"/>
  <unicode hex="0E3F"/>
  <outline>
    <contour>
      <point x="95" y="57" type="line"/>
      <point x="185" y="352" type="line"/>
      <point x="369" y="352" type="line" smooth="yes"/>
      <point x="502" y="352"/>
      <point x="540" y="292"/>
      <point x="540" y="230" type="curve" smooth="yes"/>
      <point x="540" y="195"/>
      <point x="531" y="165"/>
      <point x="516" y="143" type="curve" smooth="yes"/>
      <point x="485" y="78"/>
      <point x="426" y="57"/>
      <point x="294" y="57" type="curve" smooth="yes"/>
    </contour>
    <contour>
      <point x="198" y="393" type="line"/>
      <point x="277" y="652" type="line"/>
      <point x="411" y="652" type="line"/>
      <point x="545" y="652"/>
      <point x="589" y="613"/>
      <point x="589" y="553" type="curve" smooth="yes"/>
      <point x="589" y="531"/>
      <point x="584" y="504"/>
      <point x="572" y="479" type="curve" smooth="yes"/>
      <point x="551" y="430"/>
      <point x="505" y="393"/>
      <point x="374" y="393" type="curve" smooth="yes"/>
    </contour>
    <contour>
      <point x="167" y="-110" type="line"/>
      <point x="252" y="-110" type="line"/>
      <point x="296" y="35" type="line"/>
      <point x="284" y="47" type="line"/>
      <point x="471" y="665" type="line"/>
      <point x="492" y="676" type="line"/>
      <point x="526" y="790" type="line"/>
      <point x="442" y="790" type="line"/>
      <point x="408" y="679" type="line"/>
      <point x="422" y="663" type="line"/>
      <point x="234" y="43" type="line"/>
      <point x="210" y="33" type="line"/>
    </contour>
    <contour>
      <point x="-87" y="10" type="line"/>
      <point x="287" y="10" type="line" smooth="yes"/>
      <point x="505" y="10"/>
      <point x="634" y="86"/>
      <point x="634" y="217" type="curve"/>
      <point x="634" y="300"/>
      <point x="565" y="357"/>
      <point x="435" y="372" type="curve"/>
      <point x="448" y="360" type="line"/>
      <point x="455" y="382" type="line"/>
      <point x="430" y="374" type="line"/>
      <point x="598" y="376"/>
      <point x="681" y="448"/>
      <point x="681" y="548" type="curve" smooth="yes"/>
      <point x="681" y="638"/>
      <point x="593" y="700"/>
      <point x="415" y="700" type="curve" smooth="yes"/>
      <point x="124" y="700" type="line"/>
      <point x="106" y="644" type="line"/>
      <point x="120" y="644" type="line" smooth="yes"/>
      <point x="165" y="644"/>
      <point x="185" y="636"/>
      <point x="176" y="608" type="curve" smooth="yes"/>
      <point x="21" y="102" type="line" smooth="yes"/>
      <point x="13" y="73"/>
      <point x="-15" y="66"/>
      <point x="-57" y="66" type="curve" smooth="yes"/>
      <point x="-70" y="66" type="line"/>
    </contour>
  </outline>
</glyph>
<glyph name="idieresisacute" format="2">
  <advance width="422"/>
  <unicode hex="1E2F"/>
  <outline>
    <contour>
      <point x="121" y="680" type="curve" smooth="yes"/>
      <point x="74" y="680"/>
      <point x="42" y="698"/>
      <point x="42" y="744" type="curve" smooth="yes"/>
      <point x="42" y="787"/>
      <point x="74" y="806"/>
      <point x="121" y="806" type="curve" smooth="yes"/>
      <point x="167" y="806"/>
      <point x="201" y="787"/>
      <point x="201" y="744" type="curve" smooth="yes"/>
      <point x="201" y="698"/>
      <point x="167" y="680"/>
    </contour>
    <contour>
      <point x="413" y="680" type="curve" smooth="yes"/>
      <point x="366" y="680"/>
      <point x="334" y="698"/>
      <point x="334" y="744" type="curve" smooth="yes"/>
      <point x="334" y="787"/>
      <point x="366" y="806"/>
      <point x="413" y="806" type="curve" smooth="yes"/>
      <point x="459" y="806"/>
      <point x="493" y="787"/>
      <point x="493" y="744" type="curve" smooth="yes"/>
      <point x="493" y="698"/>
      <point x="459" y="680"/>
    </contour>
    <contour>
      <point x="373" y="1011" type="curve" smooth="yes"/>
      <point x="266" y="887" type="line"/>
      <point x="259" y="863" type="line"/>
      <point x="293" y="863" type="line"/>
      <point x="449" y="951" type="line" smooth="yes"/>
      <point x="491" y="974"/>
      <point x="525" y="991"/>
      <point x="525" y="1023" type="curve" smooth="yes"/>
      <point x="525" y="1049"/>
      <point x="503" y="1069"/>
      <point x="466" y="1069" type="curve" smooth="yes"/>
      <point x="425" y="1069"/>
      <point x="401" y="1044"/>
    </contour>
    <component base="dotlessi"/>
  </outline>
</glyph>
<glyph name="perthousand" format="2">
  <advance width="1409"/>
  <unicode hex="2030"/>
  <outline>
    <contour>
      <point x="252" y="363" type="curve" smooth="yes"/>
      <point x="412" y="363"/>
      <point x="477" y="518"/>
      <point x="477" y="617" type="curve" smooth="yes"/>
      <point x="477" y="698"/>
      <point x="420" y="750"/>
      <point x="323" y="750" type="curve" smooth="yes"/>
      <point x="164" y="750"/>
      <point x="100" y="595"/>
      <point x="100" y="496" type="curve" smooth="yes"/>
      <point x="100" y="415"/>
      <point x="155" y="363"/>
    </contour>
    <contour>
      <point x="252" y="407" type="curve" smooth="yes"/>
      <point x="206" y="407"/>
      <point x="186" y="426"/>
      <point x="186" y="481" type="curve" smooth="yes"/>
      <point x="186" y="556"/>
      <point x="221" y="706"/>
      <point x="323" y="706" type="curve" smooth="yes"/>
      <point x="369" y="706"/>
      <point x="391" y="687"/>
      <point x="391" y="632" type="curve" smooth="yes"/>
      <point x="391" y="557"/>
      <point x="354" y="407"/>
    </contour>
    <contour>
      <point x="677" y="-16" type="curve" smooth="yes"/>
      <point x="580" y="-16"/>
      <point x="525" y="36"/>
      <point x="525" y="117" type="curve" smooth="yes"/>
      <point x="525" y="216"/>
      <point x="589" y="371"/>
      <point x="748" y="371" type="curve" smooth="yes"/>
      <point x="846" y="371"/>
      <point x="902" y="319"/>
      <point x="902" y="238" type="curve" smooth="yes"/>
      <point x="902" y="139"/>
      <point x="837" y="-16"/>
    </contour>
    <contour>
      <point x="677" y="28" type="curve" smooth="yes"/>
      <point x="779" y="28"/>
      <point x="816" y="178"/>
      <point x="816" y="253" type="curve" smooth="yes"/>
      <point x="816" y="308"/>
      <point x="794" y="327"/>
      <point x="748" y="327" type="curve" smooth="yes"/>
      <point x="646" y="327"/>
      <point x="611" y="177"/>
      <point x="611" y="102" type="curve" smooth="yes"/>
      <point x="611" y="47"/>
      <point x="631" y="28"/>
    </contour>
    <contour>
      <point x="1116" y="-16" type="curve" smooth="yes"/>
      <point x="1019" y="-16"/>
      <point x="965" y="36"/>
      <point x="965" y="117" type="curve" smooth="yes"/>
      <point x="965" y="216"/>
      <point x="1028" y="371"/>
      <point x="1188" y="371" type="curve" smooth="yes"/>
      <point x="1285" y="371"/>
      <point x="1342" y="319"/>
      <point x="1342" y="238" type="curve" smooth="yes"/>
      <point x="1342" y="139"/>
      <point x="1276" y="-16"/>
    </contour>
    <contour>
      <point x="1117" y="28" type="curve" smooth="yes"/>
      <point x="1219" y="28"/>
      <point x="1255" y="178"/>
      <point x="1255" y="253" type="curve" smooth="yes"/>
      <point x="1255" y="308"/>
      <point x="1234" y="327"/>
      <point x="1188" y="327" type="curve" smooth="yes"/>
      <point x="1085" y="327"/>
      <point x="1051" y="177"/>
      <point x="1051" y="102" type="curve" smooth="yes"/>
      <point x="1051" y="47"/>
      <point x="1071" y="28"/>
    </contour>
    <component base="fraction" xOffset="400"/>
  </outline>
</glyph>
<glyph name="lira" format="2">
  <advance width="686"/>
  <unicode hex="20A4"/>
  <outline>
    <contour>
      <point x="-39" y="-12" type="line"/>
      <point x="190" y="38"/>
      <point x="309" y="133"/>
      <point x="309" y="296" type="curve" smooth="yes"/>
      <point x="309" y="396"/>
      <point x="272" y="463"/>
      <point x="272" y="540" type="curve" smooth="yes"/>
      <point x="272" y="628"/>
      <point x="327" y="681"/>
      <point x="453" y="681" type="curve" smooth="yes"/>
      <point x="542" y="681"/>
      <point x="595" y="663"/>
      <point x="645" y="644" type="curve"/>
      <point x="637" y="662"/>
      <point x="617" y="681"/>
      <point x="582" y="686" type="curve"/>
      <point x="545" y="563" type="line"/>
      <point x="643" y="563" type="line"/>
      <point x="684" y="695" type="line"/>
      <point x="656" y="707"/>
      <point x="580" y="735"/>
      <point x="455" y="735" type="curve" smooth="yes"/>
      <point x="277" y="735"/>
      <point x="173" y="665"/>
      <point x="173" y="546" type="curve" smooth="yes"/>
      <point x="173" y="461"/>
      <point x="226" y="388"/>
      <point x="226" y="279" type="curve" smooth="yes"/>
      <point x="226" y="160"/>
      <point x="143" y="92"/>
      <point x="-20" y="53" type="curve"/>
    </contour>
    <contour>
      <point x="421" y="-10" type="curve" smooth="yes"/>
      <point x="533" y="-10"/>
      <point x="585" y="45"/>
      <point x="631" y="164" type="curve"/>
      <point x="569" y="181" type="line"/>
      <point x="532" y="98"/>
      <point x="507" y="67"/>
      <point x="430" y="67" type="curve" smooth="yes"/>
      <point x="344" y="67"/>
      <point x="303" y="104"/>
      <point x="241" y="190" type="curve"/>
      <point x="198" y="147" type="line"/>
      <point x="277" y="40"/>
      <point x="306" y="-10"/>
    </contour>
    <contour>
      <point x="38" y="298" type="line"/>
      <point x="22" y="248" type="line"/>
      <point x="506" y="248" type="line"/>
      <point x="522" y="298" type="line"/>
    </contour>
    <contour>
      <point x="83" y="472" type="line"/>
      <point x="67" y="422" type="line"/>
      <point x="551" y="422" type="line"/>
      <point x="567" y="472" type="line"/>
    </contour>
  </outline>
</glyph>
<glyph name="cedi" format="2">
  <advance width="686"/>
  <unicode hex="20B5"/>
  <outline>
    <contour>
      <point x="466" y="648" type="curve" smooth="yes"/>
      <point x="574" y="648"/>
      <point x="628" y="627"/>
      <point x="657" y="607" type="curve"/>
      <point x="662" y="608"/>
      <point x="643" y="638"/>
      <point x="616" y="647" type="curve"/>
      <point x="568" y="492" type="line"/>
      <point x="666" y="492" type="line"/>
      <point x="717" y="654" type="line"/>
      <point x="689" y="667"/>
      <point x="597" y="700"/>
      <point x="465" y="700" type="curve" smooth="yes"/>
      <point x="177" y="700"/>
      <point x="44" y="459"/>
      <point x="44" y="246" type="curve" smooth="yes"/>
      <point x="44" y="101"/>
      <point x="139" y="10"/>
      <point x="327" y="10" type="curve" smooth="yes"/>
      <point x="466" y="10"/>
      <point x="558" y="84"/>
      <point x="628" y="220" type="curve"/>
      <point x="567" y="242" type="line"/>
      <point x="505" y="126"/>
      <point x="441" y="65"/>
      <point x="334" y="65" type="curve" smooth="yes"/>
      <point x="206" y="65"/>
      <point x="141" y="123"/>
      <point x="141" y="237" type="curve" smooth="yes"/>
      <point x="141" y="292"/>
      <point x="147" y="346"/>
      <point x="170" y="407" type="curve" smooth="yes"/>
      <point x="226" y="565"/>
      <point x="311" y="648"/>
    </contour>
    <contour>
      <point x="469" y="790" type="line"/>
      <point x="436" y="678" type="line"/>
      <point x="445" y="669" type="line"/>
      <point x="257" y="51" type="line"/>
      <point x="240" y="37" type="line"/>
      <point x="192" y="-120" type="line"/>
      <point x="275" y="-120" type="line"/>
      <point x="323" y="39" type="line"/>
      <point x="312" y="47" type="line"/>
      <point x="502" y="672" type="line"/>
      <point x="519" y="680" type="line"/>
      <point x="552" y="790" type="line"/>
    </contour>
  </outline>
</glyph>
<glyph name="ruble" format="2">
  <advance width="686"/>
  <unicode hex="20BD"/>
  <outline>
    <contour>
      <point x="474" y="180" type="line"/>
      <point x="5" y="180" type="line"/>
      <point x="21" y="230" type="line"/>
      <point x="489" y="230" type="line"/>
    </contour>
    <contour>
      <point x="73" y="400" type="line"/>
      <point x="435" y="400" type="line" smooth="yes"/>
      <point x="546" y="400"/>
      <point x="600" y="432"/>
      <point x="623" y="495" type="curve" smooth="yes"/>
      <point x="630" y="515"/>
      <point x="632" y="533"/>
      <point x="632" y="550" type="curve" smooth="yes"/>
      <point x="632" y="616"/>
      <point x="578" y="654"/>
      <point x="477" y="654" type="curve" smooth="yes"/>
      <point x="359" y="654" type="line"/>
      <point x="179" y="66" type="line" smooth="yes"/>
      <point x="177" y="59"/>
      <point x="230" y="56"/>
      <point x="271" y="56" type="curve" smooth="yes"/>
      <point x="305" y="56" type="line"/>
      <point x="287" y="0" type="line"/>
      <point x="-50" y="0" type="line"/>
      <point x="-32" y="56" type="line"/>
      <point x="-19" y="56" type="line" smooth="yes"/>
      <point x="42" y="56"/>
      <point x="88" y="63"/>
      <point x="96" y="92" type="curve" smooth="yes"/>
      <point x="257" y="618" type="line" smooth="yes"/>
      <point x="266" y="647"/>
      <point x="224" y="654"/>
      <point x="164" y="654" type="curve" smooth="yes"/>
      <point x="151" y="654" type="line"/>
      <point x="168" y="710" type="line"/>
      <point x="478" y="710" type="line" smooth="yes"/>
      <point x="640" y="710"/>
      <point x="728" y="644"/>
      <point x="728" y="550" type="curve" smooth="yes"/>
      <point x="728" y="430"/>
      <point x="619" y="348"/>
      <point x="429" y="348" type="curve" smooth="yes"/>
      <point x="57" y="348" type="line"/>
    </contour>
  </outline>
</glyph>
<glyph name="trademark" format="2">
  <advance width="1271"/>
  <unicode hex="2122"/>
  <outline>
    <contour>
      <point x="145" y="314" type="line"/>
      <point x="363" y="314" type="line"/>
      <point x="375" y="353" type="line"/>
      <point x="359" y="353" type="line" smooth="yes"/>
      <point x="327" y="353"/>
      <point x="304" y="357"/>
      <point x="308" y="372" type="curve" smooth="yes"/>
      <point x="398" y="668" type="line"/>
      <point x="447" y="668" type="line" smooth="yes"/>
      <point x="509" y="668"/>
      <point x="528" y="659"/>
      <point x="525" y="641" type="curve" smooth="yes"/>
      <point x="510" y="570" type="line"/>
      <point x="561" y="570" type="line"/>
      <point x="605" y="710" type="line"/>
      <point x="147" y="710" type="line"/>
      <point x="104" y="570" type="line"/>
      <point x="155" y="570" type="line"/>
      <point x="186" y="641" type="line" smooth="yes"/>
      <point x="194" y="659"/>
      <point x="219" y="668"/>
      <point x="279" y="668" type="curve" smooth="yes"/>
      <point x="326" y="668" type="line"/>
      <point x="236" y="372" type="line" smooth="yes"/>
      <point x="232" y="357"/>
      <point x="205" y="353"/>
      <point x="174" y="353" type="curve" smooth="yes"/>
      <point x="158" y="353" type="line"/>
    </contour>
    <contour>
      <point x="556" y="314" type="line"/>
      <point x="721" y="314" type="line"/>
      <point x="733" y="353" type="line"/>
      <point x="731" y="353" type="line" smooth="yes"/>
      <point x="716" y="353"/>
      <point x="689" y="355"/>
      <point x="690" y="358" type="curve" smooth="yes"/>
      <point x="796" y="705" type="line"/>
      <point x="790" y="706" type="line"/>
      <point x="827" y="313" type="line"/>
      <point x="879" y="313" type="line"/>
      <point x="1159" y="706" type="line"/>
      <point x="1149" y="701" type="line"/>
      <point x="1043" y="358" type="line" smooth="yes"/>
      <point x="1042" y="355"/>
      <point x="1017" y="353"/>
      <point x="999" y="353" type="curve" smooth="yes"/>
      <point x="994" y="353" type="line"/>
      <point x="982" y="314" type="line"/>
      <point x="1164" y="314" type="line"/>
      <point x="1176" y="353" type="line"/>
      <point x="1164" y="353" type="line" smooth="yes"/>
      <point x="1135" y="353"/>
      <point x="1113" y="357"/>
      <point x="1118" y="372" type="curve" smooth="yes"/>
      <point x="1203" y="653" type="line" smooth="yes"/>
      <point x="1207" y="667"/>
      <point x="1231" y="671"/>
      <point x="1260" y="671" type="curve" smooth="yes"/>
      <point x="1273" y="671" type="line"/>
      <point x="1285" y="710" type="line"/>
      <point x="1100" y="710" type="line"/>
      <point x="859" y="359" type="line"/>
      <point x="887" y="364" type="line"/>
      <point x="858" y="710" type="line"/>
      <point x="677" y="710" type="line"/>
      <point x="664" y="671" type="line"/>
      <point x="675" y="671" type="line" smooth="yes"/>
      <point x="705" y="671"/>
      <point x="727" y="667"/>
      <point x="723" y="653" type="curve" smooth="yes"/>
      <point x="637" y="372" type="line" smooth="yes"/>
      <point x="633" y="357"/>
      <point x="609" y="353"/>
      <point x="579" y="353" type="curve" smooth="yes"/>
      <point x="568" y="353" type="line"/>
    </contour>
  </outline>
</glyph>
<glyph name="emptyset" format="2">
  <advance width="856"/>
  <unicode hex="2205"/>
  <outline>
    <contour>
      <point x="428" y="42" type="curve" smooth="yes"/>
      <point x="271" y="42"/>
      <point x="151" y="126"/>
      <point x="151" y="270" type="curve" smooth="yes"/>
      <point x="151" y="413"/>
      <point x="275" y="498"/>
      <point x="428" y="498" type="curve" smooth="yes"/>
      <point x="586" y="498"/>
      <point x="705" y="415"/>
      <point x="705" y="270" type="curve" smooth="yes"/>
      <point x="705" y="128"/>
      <point x="582" y="42"/>
    </contour>
    <contour>
      <point x="428" y="-10" type="curve" smooth="yes"/>
      <point x="617" y="-10"/>
      <point x="775" y="100"/>
      <point x="775" y="270" type="curve" smooth="yes"/>
      <point x="775" y="440"/>
      <point x="617" y="550"/>
      <point x="428" y="550" type="curve" smooth="yes"/>
      <point x="238" y="550"/>
      <point x="81" y="440"/>
      <point x="81" y="270" type="curve" smooth="yes"/>
      <point x="81" y="100"/>
      <point x="238" y="-10"/>
    </contour>
    <contour>
      <point x="94" y="-45" type="line"/>
      <point x="804" y="550" type="line"/>
      <point x="761" y="585" type="line"/>
      <point x="51" y="-10" type="line"/>
    </contour>
  </outline>
</glyph>
<glyph name="notequal" format="2">
  <advance width="686"/>
  <unicode hex="2260"/>
  <outline>
    <contour>
      <point x="601" y="627" type="line"/>
      <point x="3" y="47" type="line"/>
      <point x="85" y="47" type="line"/>
      <point x="683" y="627" type="line"/>
    </contour>
    <component base="equal"/>
  </outline>
</glyph>
<glyph name="two.den" format="2">
  <advance width="592"/>
  <unicode hex="E404"/>
  <outline>
    <contour>
      <point x="293" y="59" type="line" smooth="yes"/>
      <point x="361" y="59"/>
      <point x="387" y="63"/>
      <point x="398" y="87" type="curve" smooth="yes"/>
      <point x="420" y="133" type="line"/>
      <point x="473" y="133" type="line"/>
      <point x="435" y="0" type="line"/>
      <point x="20" y="0" type="line"/>
      <point x="42" y="71" type="line"/>
      <point x="261" y="167"/>
      <point x="393" y="207"/>
      <point x="393" y="313" type="curve" smooth="yes"/>
      <point x="393" y="360"/>
      <point x="366" y="378"/>
      <point x="309" y="378" type="curve" smooth="yes"/>
      <point x="258" y="378"/>
      <point x="211" y="364"/>
      <point x="184" y="352" type="curve"/>
      <point x="192" y="364"/>
      <point x="211" y="371"/>
      <point x="230" y="373" type="curve"/>
      <point x="202" y="282" type="line"/>
      <point x="117" y="282" type="line"/>
      <point x="149" y="387" type="line"/>
      <point x="179" y="400"/>
      <point x="244" y="420"/>
      <point x="313" y="420" type="curve" smooth="yes"/>
      <point x="429" y="420"/>
      <point x="489" y="384"/>
      <point x="489" y="313" type="curve" smooth="yes"/>
      <point x="489" y="182"/>
      <point x="289" y="132"/>
      <point x="75" y="46" type="curve"/>
      <point x="61" y="43"/>
      <point x="69" y="56"/>
      <point x="79" y="59" type="curve"/>
    </contour>
  </outline>
</glyph>
<glyph name="four.den" format="2">
  <advance width="593"/>
  <unicode hex="E406"/>
  <outline>
    <contour>
      <point x="15" y="104" type="line"/>
      <point x="495" y="104" type="line"/>
      <point x="512" y="158" type="line"/>
      <point x="67" y="158" type="line"/>
      <point x="59" y="123" type="line"/>
      <point x="394" y="382" type="line"/>
      <point x="406" y="415" type="line"/>
      <point x="358" y="415" type="line"/>
      <point x="33" y="164" type="line"/>
    </contour>
    <contour>
      <point x="348" y="0" type="line"/>
      <point x="476" y="415" type="line"/>
      <point x="389" y="415" type="line"/>
      <point x="384" y="395" type="line"/>
      <point x="262" y="0" type="line"/>
    </contour>
  </outline>
</glyph>
<glyph name="E.alt" format="2">
  <advance width="839"/>
  <outline>
    <contour>
      <point x="734" y="211" type="line"/>
      <point x="661" y="211" type="line"/>
      <point x="611" y="101" type="line" smooth="yes"/>
      <point x="594" y="65"/>
      <point x="548" y="56"/>
      <point x="443" y="56" type="curve" smooth="yes"/>
      <point x="199" y="56" type="line"/>
      <point x="382" y="654" type="line"/>
      <point x="587" y="654" type="line" smooth="yes"/>
      <point x="692" y="654"/>
      <point x="730" y="645"/>
      <point x="727" y="609" type="curve" smooth="yes"/>
      <point x="719" y="524" type="line"/>
      <point x="791" y="524" type="line"/>
      <point x="842" y="710" type="line"/>
      <point x="185" y="710" type="line"/>
      <point x="167" y="652" type="line"/>
      <point x="180" y="652" type="line" smooth="yes"/>
      <point x="240" y="652"/>
      <point x="282" y="645"/>
      <point x="273" y="616" type="curve" smooth="yes"/>
      <point x="113" y="94" type="line" smooth="yes"/>
      <point x="104" y="65"/>
      <point x="58" y="58"/>
      <point x="-2" y="58" type="curve" smooth="yes"/>
      <point x="-16" y="58" type="line"/>
      <point x="-34" y="0" type="line"/>
      <point x="671" y="0" type="line"/>
    </contour>
    <contour>
      <point x="283" y="389" type="line"/>
      <point x="267" y="336" type="line"/>
      <point x="472" y="336" type="line" smooth="yes"/>
      <point x="508" y="336"/>
      <point x="513" y="311"/>
      <point x="502" y="277" type="curve" smooth="yes"/>
      <point x="496" y="257" type="line"/>
      <point x="569" y="257" type="line"/>
      <point x="635" y="469" type="line"/>
      <point x="562" y="469" type="line"/>
      <point x="556" y="450" type="line" smooth="yes"/>
      <point x="545" y="415"/>
      <point x="526" y="389"/>
      <point x="490" y="389" type="curve" smooth="yes"/>
    </contour>
  </outline>
</glyph>
<glyph name="at.uc" format="2">
  <advance width="1097"/>
  <outline>
    <contour>
      <point x="475" y="149" type="curve" smooth="yes"/>
      <point x="561" y="149"/>
      <point x="596" y="191"/>
      <point x="681" y="280" type="curve"/>
      <point x="650" y="288" type="line"/>
      <point x="594" y="236"/>
      <point x="556" y="195"/>
      <point x="493" y="195" type="curve" smooth="yes"/>
      <point x="430" y="195"/>
      <point x="403" y="218"/>
      <point x="403" y="264" type="curve" smooth="yes"/>
      <point x="403" y="342"/>
      <point x="463" y="528"/>
      <point x="602" y="528" type="curve" smooth="yes"/>
      <point x="687" y="528"/>
      <point x="718" y="488"/>
      <point x="724" y="387" type="curve"/>
      <point x="756" y="422" type="line"/>
      <point x="744" y="513"/>
      <point x="716" y="574"/>
      <point x="599" y="574" type="curve" smooth="yes"/>
      <point x="424" y="574"/>
      <point x="316" y="396"/>
      <point x="316" y="277" type="curve" smooth="yes"/>
      <point x="316" y="202"/>
      <point x="371" y="149"/>
    </contour>
    <contour>
      <point x="535" y="-31" type="curve" smooth="yes"/>
      <point x="646" y="-31"/>
      <point x="746" y="-10"/>
      <point x="816" y="18" type="curve"/>
      <point x="811" y="67" type="line"/>
      <point x="739" y="40"/>
      <point x="648" y="19"/>
      <point x="535" y="19" type="curve" smooth="yes"/>
      <point x="302" y="19"/>
      <point x="137" y="124"/>
      <point x="137" y="304" type="curve" smooth="yes"/>
      <point x="137" y="524"/>
      <point x="337" y="701"/>
      <point x="630" y="701" type="curve" smooth="yes"/>
      <point x="874" y="701"/>
      <point x="990" y="611"/>
      <point x="990" y="464" type="curve" smooth="yes"/>
      <point x="990" y="328"/>
      <point x="916" y="197"/>
      <point x="798" y="197" type="curve" smooth="yes"/>
      <point x="747" y="197"/>
      <point x="716" y="214"/>
      <point x="716" y="245" type="curve" smooth="yes"/>
      <point x="716" y="255"/>
      <point x="717" y="263"/>
      <point x="727" y="285" type="curve"/>
      <point x="853" y="568" type="line"/>
      <point x="807" y="568" type="line"/>
      <point x="727" y="473" type="line"/>
      <point x="725" y="481" type="line"/>
      <point x="624" y="251" type="line"/>
      <point x="631" y="254" type="line"/>
      <point x="646" y="191"/>
      <point x="694" y="153"/>
      <point x="794" y="153" type="curve" smooth="yes"/>
      <point x="957" y="153"/>
      <point x="1064" y="299"/>
      <point x="1064" y="464" type="curve" smooth="yes"/>
      <point x="1064" y="644"/>
      <point x="918" y="751"/>
      <point x="630" y="751" type="curve" smooth="yes"/>
      <point x="300" y="751"/>
      <point x="63" y="549"/>
      <point x="63" y="304" type="curve" smooth="yes"/>
      <point x="63" y="95"/>
      <point x="254" y="-31"/>
    </contour>
  </outline>
</glyph>
<glyph name="braceleft.uc" format="2">
  <advance width="551"/>
  <outline>
    <contour>
      <point x="50" y="8" type="curve" smooth="yes"/>
      <point x="50" y="-68"/>
      <point x="126" y="-98"/>
      <point x="252" y="-98" type="curve" smooth="yes"/>
      <point x="294" y="-98"/>
      <point x="336" y="-93"/>
      <point x="357" y="-88" type="curve"/>
      <point x="386" y="-44" type="line"/>
      <point x="360" y="-48"/>
      <point x="318" y="-52"/>
      <point x="285" y="-52" type="curve" smooth="yes"/>
      <point x="192" y="-52"/>
      <point x="148" y="-34"/>
      <point x="148" y="12" type="curve" smooth="yes"/>
      <point x="148" y="93"/>
      <point x="389" y="166"/>
      <point x="389" y="231" type="curve" smooth="yes"/>
      <point x="389" y="270"/>
      <point x="336" y="288"/>
      <point x="156" y="330" type="curve"/>
      <point x="159" y="342" type="line"/>
      <point x="383" y="362"/>
      <point x="424" y="382"/>
      <point x="424" y="428" type="curve" smooth="yes"/>
      <point x="424" y="475"/>
      <point x="327" y="558"/>
      <point x="327" y="625" type="curve" smooth="yes"/>
      <point x="327" y="673"/>
      <point x="364" y="702"/>
      <point x="478" y="702" type="curve" smooth="yes"/>
      <point x="524" y="702"/>
      <point x="553" y="698"/>
      <point x="588" y="693" type="curve"/>
      <point x="584" y="737" type="line"/>
      <point x="557" y="744"/>
      <point x="509" y="751"/>
      <point x="460" y="751" type="curve" smooth="yes"/>
      <point x="301" y="751"/>
      <point x="230" y="699"/>
      <point x="230" y="627" type="curve" smooth="yes"/>
      <point x="230" y="552"/>
      <point x="321" y="474"/>
      <point x="354" y="407" type="curve"/>
      <point x="363" y="419" type="line"/>
      <point x="78" y="363" type="line"/>
      <point x="62" y="313" type="line"/>
      <point x="331" y="225" type="line"/>
      <point x="331" y="241" type="line"/>
      <point x="241" y="170"/>
      <point x="50" y="110"/>
    </contour>
  </outline>
</glyph>
<glyph name="breve.uc" format="2">
  <advance width="613"/>
  <anchor x="308" y="694" name="_top"/>
  <outline>
    <contour>
      <point x="298" y="796" type="curve" smooth="yes"/>
      <point x="155" y="796"/>
      <point x="108" y="843"/>
      <point x="108" y="912" type="curve" smooth="yes"/>
      <point x="108" y="931"/>
      <point x="110" y="944"/>
      <point x="115" y="962" type="curve"/>
      <point x="185" y="962" type="line"/>
      <point x="177" y="897"/>
      <point x="188" y="869"/>
      <point x="306" y="869" type="curve" smooth="yes"/>
      <point x="398" y="869"/>
      <point x="429" y="883"/>
      <point x="450" y="962" type="curve"/>
      <point x="521" y="962" type="line"/>
      <point x="499" y="837"/>
      <point x="427" y="796"/>
    </contour>
  </outline>
</glyph>
<glyph name="breve_hook" format="2">
  <advance width="625"/>
  <anchor x="313" y="525" name="_top"/>
  <outline>
    <contour>
      <point x="190" y="998" type="line"/>
      <point x="214" y="1075"/>
      <point x="291" y="1105"/>
      <point x="386" y="1105" type="curve" smooth="yes"/>
      <point x="501" y="1105"/>
      <point x="552" y="1075"/>
      <point x="552" y="1014" type="curve" smooth="yes"/>
      <point x="552" y="931"/>
      <point x="464" y="904"/>
      <point x="329" y="903" type="curve"/>
      <point x="388" y="930" type="line"/>
      <point x="367" y="857" type="line"/>
      <point x="284" y="857" type="line"/>
      <point x="310" y="942" type="line"/>
      <point x="414" y="943"/>
      <point x="460" y="956"/>
      <point x="460" y="1010" type="curve" smooth="yes"/>
      <point x="460" y="1043"/>
      <point x="440" y="1055"/>
      <point x="384" y="1055" type="curve" smooth="yes"/>
      <point x="323" y="1055"/>
      <point x="298" y="1041"/>
      <point x="283" y="998" type="curve"/>
    </contour>
    <contour>
      <point x="143" y="831" type="curve"/>
      <point x="214" y="831" type="line"/>
      <point x="206" y="765"/>
      <point x="212" y="735"/>
      <point x="314" y="735" type="curve" smooth="yes"/>
      <point x="403" y="735"/>
      <point x="427" y="752"/>
      <point x="449" y="831" type="curve"/>
      <point x="518" y="831" type="line"/>
      <point x="496" y="706"/>
      <point x="435" y="668"/>
      <point x="310" y="668" type="curve" smooth="yes"/>
      <point x="182" y="668"/>
      <point x="137" y="710"/>
      <point x="137" y="779" type="curve" smooth="yes"/>
      <point x="137" y="797"/>
      <point x="138" y="809"/>
    </contour>
  </outline>
</glyph>
<glyph name="breve_tilde.uc" format="2">
  <advance width="613"/>
  <anchor x="345" y="694" name="_top"/>
  <outline>
    <contour>
      <point x="271" y="1095" type="curve" smooth="yes"/>
      <point x="332" y="1095"/>
      <point x="320" y="1005"/>
      <point x="432" y="1005" type="curve" smooth="yes"/>
      <point x="495" y="1005"/>
      <point x="535" y="1037"/>
      <point x="578" y="1141" type="curve"/>
      <point x="520" y="1159" type="line"/>
      <point x="491" y="1097"/>
      <point x="476" y="1066"/>
      <point x="441" y="1066" type="curve" smooth="yes"/>
      <point x="386" y="1066"/>
      <point x="394" y="1154"/>
      <point x="283" y="1154" type="curve" smooth="yes"/>
      <point x="214" y="1154"/>
      <point x="172" y="1121"/>
      <point x="128" y="1022" type="curve"/>
      <point x="185" y="1004" type="line"/>
      <point x="216" y="1067"/>
      <point x="234" y="1095"/>
    </contour>
    <contour>
      <point x="298" y="796" type="curve" smooth="yes"/>
      <point x="155" y="796"/>
      <point x="109" y="843"/>
      <point x="109" y="912" type="curve" smooth="yes"/>
      <point x="109" y="927"/>
      <point x="110" y="938"/>
      <point x="113" y="951" type="curve"/>
      <point x="184" y="951" type="line"/>
      <point x="178" y="894"/>
      <point x="195" y="869"/>
      <point x="306" y="869" type="curve" smooth="yes"/>
      <point x="394" y="869"/>
      <point x="426" y="882"/>
      <point x="448" y="951" type="curve"/>
      <point x="518" y="951" type="line"/>
      <point x="495" y="835"/>
      <point x="423" y="796"/>
    </contour>
  </outline>
</glyph>
<glyph name="cedi.proportional" format="2">
  <advance width="830"/>
  <outline>
    <contour>
      <point x="410" y="10" type="curve" smooth="yes"/>
      <point x="575" y="10"/>
      <point x="677" y="92"/>
      <point x="750" y="223" type="curve"/>
      <point x="686" y="248" type="line"/>
      <point x="621" y="134"/>
      <point x="551" y="65"/>
      <point x="416" y="65" type="curve" smooth="yes"/>
      <point x="235" y="65"/>
      <point x="162" y="143"/>
      <point x="162" y="270" type="curve" smooth="yes"/>
      <point x="162" y="438"/>
      <point x="259" y="648"/>
      <point x="519" y="648" type="curve" smooth="yes"/>
      <point x="646" y="648"/>
      <point x="724" y="625"/>
      <point x="762" y="610" type="curve"/>
      <point x="771" y="603"/>
      <point x="755" y="640"/>
      <point x="728" y="655" type="curve"/>
      <point x="679" y="492" type="line"/>
      <point x="779" y="492" type="line"/>
      <point x="826" y="645" type="line"/>
      <point x="796" y="661"/>
      <point x="690" y="700"/>
      <point x="519" y="700" type="curve" smooth="yes"/>
      <point x="206" y="700"/>
      <point x="64" y="478"/>
      <point x="64" y="274" type="curve" smooth="yes"/>
      <point x="64" y="121"/>
      <point x="177" y="10"/>
    </contour>
    <contour>
      <point x="539" y="790" type="line"/>
      <point x="506" y="678" type="line"/>
      <point x="512" y="669" type="line"/>
      <point x="323" y="51" type="line"/>
      <point x="310" y="37" type="line"/>
      <point x="262" y="-120" type="line"/>
      <point x="345" y="-120" type="line"/>
      <point x="393" y="39" type="line"/>
      <point x="385" y="47" type="line"/>
      <point x="576" y="672" type="line"/>
      <point x="589" y="680" type="line"/>
      <point x="622" y="790" type="line"/>
    </contour>
  </outline>
</glyph>
<glyph name="circumflex_grave" format="2">
  <advance width="700"/>
  <anchor x="336" y="564" name="_top"/>
  <outline>
    <contour>
      <point x="566" y="938" type="curve" smooth="yes"/>
      <point x="609" y="824" type="line"/>
      <point x="601" y="800" type="line"/>
      <point x="570" y="800" type="line"/>
      <point x="468" y="896" type="line" smooth="yes"/>
      <point x="447" y="915"/>
      <point x="431" y="933"/>
      <point x="431" y="953" type="curve" smooth="yes"/>
      <point x="431" y="979"/>
      <point x="455" y="1001"/>
      <point x="494" y="1001" type="curve" smooth="yes"/>
      <point x="539" y="1001"/>
      <point x="551" y="974"/>
    </contour>
    <component base="circumflex"/>
  </outline>
</glyph>
<glyph name="dollar.alt" format="2">
  <advance width="686"/>
  <outline>
    <contour>
      <point x="292" y="1" type="curve" smooth="yes"/>
      <point x="484" y="1"/>
      <point x="609" y="72"/>
      <point x="609" y="203" type="curve" smooth="yes"/>
      <point x="609" y="313"/>
      <point x="506" y="346"/>
      <point x="401" y="384" type="curve" smooth="yes"/>
      <point x="282" y="428"/>
      <point x="211" y="445"/>
      <point x="211" y="527" type="curve" smooth="yes"/>
      <point x="211" y="611"/>
      <point x="282" y="651"/>
      <point x="418" y="651" type="curve" smooth="yes"/>
      <point x="532" y="651"/>
      <point x="616" y="625"/>
      <point x="658" y="601" type="curve"/>
      <point x="657" y="617"/>
      <point x="637" y="640"/>
      <point x="610" y="651" type="curve"/>
      <point x="561" y="494" type="line"/>
      <point x="652" y="494" type="line"/>
      <point x="700" y="652" type="line"/>
      <point x="672" y="668"/>
      <point x="572" y="703"/>
      <point x="420" y="703" type="curve" smooth="yes"/>
      <point x="224" y="703"/>
      <point x="128" y="630"/>
      <point x="128" y="520" type="curve" smooth="yes"/>
      <point x="128" y="416"/>
      <point x="210" y="383"/>
      <point x="320" y="342" type="curve" smooth="yes"/>
      <point x="432" y="302"/>
      <point x="521" y="281"/>
      <point x="521" y="199" type="curve" smooth="yes"/>
      <point x="521" y="96"/>
      <point x="435" y="53"/>
      <point x="292" y="53" type="curve" smooth="yes"/>
      <point x="169" y="53"/>
      <point x="67" y="85"/>
      <point x="26" y="112" type="curve"/>
      <point x="24" y="110"/>
      <point x="38" y="69"/>
      <point x="69" y="65" type="curve"/>
      <point x="118" y="223" type="line"/>
      <point x="25" y="223" type="line"/>
      <point x="-22" y="65" type="line"/>
      <point x="15" y="44"/>
      <point x="132" y="1"/>
    </contour>
    <contour>
      <point x="152" y="-150" type="line"/>
      <point x="238" y="-150" type="line"/>
      <point x="291" y="22" type="line"/>
      <point x="205" y="23" type="line"/>
    </contour>
    <contour>
      <point x="494" y="686" type="line"/>
      <point x="535" y="819" type="line"/>
      <point x="449" y="819" type="line"/>
      <point x="407" y="684" type="line"/>
    </contour>
  </outline>
</glyph>
<glyph name="eight.oldtab" format="2">
  <advance width="686"/>
  <outline>
    <contour>
      <point x="322" y="42" type="curve" smooth="yes"/>
      <point x="200" y="42"/>
      <point x="135" y="89"/>
      <point x="135" y="172" type="curve" smooth="yes"/>
      <point x="135" y="188"/>
      <point x="138" y="209"/>
      <point x="143" y="228" type="curve" smooth="yes"/>
      <point x="173" y="323"/>
      <point x="238" y="350"/>
      <point x="334" y="350" type="curve" smooth="yes"/>
      <point x="436" y="350"/>
      <point x="512" y="312"/>
      <point x="512" y="231" type="curve" smooth="yes"/>
      <point x="512" y="212"/>
      <point x="509" y="189"/>
      <point x="501" y="165" type="curve" smooth="yes"/>
      <point x="473" y="76"/>
      <point x="413" y="42"/>
    </contour>
    <contour>
      <point x="418" y="396" type="curve" smooth="yes"/>
      <point x="317" y="396"/>
      <point x="253" y="435"/>
      <point x="253" y="510" type="curve" smooth="yes"/>
      <point x="253" y="526"/>
      <point x="256" y="543"/>
      <point x="261" y="561" type="curve" smooth="yes"/>
      <point x="283" y="636"/>
      <point x="337" y="669"/>
      <point x="431" y="669" type="curve" smooth="yes"/>
      <point x="533" y="669"/>
      <point x="589" y="630"/>
      <point x="589" y="562" type="curve" smooth="yes"/>
      <point x="589" y="544"/>
      <point x="585" y="518"/>
      <point x="579" y="500" type="curve" smooth="yes"/>
      <point x="554" y="420"/>
      <point x="500" y="396"/>
    </contour>
    <contour>
      <point x="319" y="-10" type="curve"/>
      <point x="513" y="-10"/>
      <point x="617" y="85"/>
      <point x="617" y="200" type="curve" smooth="yes"/>
      <point x="617" y="291"/>
      <point x="537" y="347"/>
      <point x="444" y="369" type="curve"/>
      <point x="466" y="357" type="line"/>
      <point x="471" y="374" type="line"/>
      <point x="448" y="365" type="line"/>
      <point x="574" y="371"/>
      <point x="679" y="431"/>
      <point x="679" y="557" type="curve" smooth="yes"/>
      <point x="679" y="657"/>
      <point x="594" y="722"/>
      <point x="432" y="722" type="curve" smooth="yes"/>
      <point x="256" y="722"/>
      <point x="162" y="634"/>
      <point x="162" y="528" type="curve"/>
      <point x="162" y="448"/>
      <point x="228" y="400"/>
      <point x="312" y="378" type="curve"/>
      <point x="289" y="393" type="line"/>
      <point x="282" y="374" type="line"/>
      <point x="309" y="383" type="line"/>
      <point x="143" y="376"/>
      <point x="30" y="306"/>
      <point x="30" y="180" type="curve" smooth="yes"/>
      <point x="30" y="62"/>
      <point x="142" y="-10"/>
    </contour>
  </outline>
</glyph>
<glyph name="f_f.alt" format="2">
  <advance width="954"/>
  <outline>
    <contour>
      <point x="506" y="509" type="line"/>
      <point x="956" y="509" type="line"/>
      <point x="971" y="565" type="line"/>
      <point x="522" y="565" type="line"/>
    </contour>
    <contour>
      <point x="77" y="509" type="line"/>
      <point x="553" y="509" type="line"/>
      <point x="568" y="565" type="line"/>
      <point x="93" y="565" type="line"/>
    </contour>
    <contour>
      <point x="54" y="-223" type="line"/>
      <point x="132" y="-223" type="line"/>
      <point x="337" y="618" type="line" smooth="yes"/>
      <point x="356" y="696"/>
      <point x="400" y="719"/>
      <point x="527" y="719" type="curve" smooth="yes"/>
      <point x="640" y="719"/>
      <point x="714" y="695"/>
      <point x="751" y="670" type="curve"/>
      <point x="747" y="693"/>
      <point x="733" y="720"/>
      <point x="695" y="724" type="curve"/>
      <point x="674" y="635" type="line"/>
      <point x="760" y="636" type="line"/>
      <point x="789" y="722" type="line"/>
      <point x="758" y="741"/>
      <point x="667" y="775"/>
      <point x="532" y="775" type="curve" smooth="yes"/>
      <point x="345" y="775"/>
      <point x="266" y="728"/>
      <point x="243" y="627" type="curve" smooth="yes"/>
    </contour>
    <contour>
      <point x="483" y="-223" type="line"/>
      <point x="561" y="-223" type="line"/>
      <point x="770" y="635" type="line" smooth="yes"/>
      <point x="788" y="708"/>
      <point x="821" y="734"/>
      <point x="908" y="734" type="curve" smooth="yes"/>
      <point x="970" y="734"/>
      <point x="1015" y="723"/>
      <point x="1043" y="711" type="curve"/>
      <point x="1039" y="723"/>
      <point x="1027" y="737"/>
      <point x="991" y="741" type="curve"/>
      <point x="966" y="654" type="line"/>
      <point x="1061" y="654" type="line"/>
      <point x="1092" y="763" type="line"/>
      <point x="1064" y="774"/>
      <point x="997" y="790"/>
      <point x="913" y="790" type="curve" smooth="yes"/>
      <point x="764" y="790"/>
      <point x="698" y="742"/>
      <point x="676" y="645" type="curve" smooth="yes"/>
    </contour>
  </outline>
</glyph>
<glyph name="f_f_b" format="2">
  <advance width="1698"/>
  <outline>
    <contour>
      <point x="93" y="565" type="line"/>
      <point x="77" y="509" type="line"/>
      <point x="586" y="509" type="line"/>
      <point x="602" y="565" type="line"/>
    </contour>
    <contour>
      <point x="522" y="565" type="line"/>
      <point x="506" y="509" type="line"/>
      <point x="934" y="509" type="line"/>
      <point x="949" y="565" type="line"/>
    </contour>
    <contour>
      <point x="1267" y="-13" type="curve" smooth="yes"/>
      <point x="1523" y="-13"/>
      <point x="1642" y="218"/>
      <point x="1642" y="385" type="curve" smooth="yes"/>
      <point x="1642" y="496"/>
      <point x="1586" y="575"/>
      <point x="1437" y="575" type="curve" smooth="yes"/>
      <point x="1315" y="575"/>
      <point x="1211" y="493"/>
      <point x="1124" y="383" type="curve"/>
      <point x="1133" y="349" type="line"/>
      <point x="1229" y="455"/>
      <point x="1303" y="516"/>
      <point x="1416" y="516" type="curve" smooth="yes"/>
      <point x="1515" y="516"/>
      <point x="1541" y="467"/>
      <point x="1541" y="385" type="curve" smooth="yes"/>
      <point x="1541" y="250"/>
      <point x="1461" y="47"/>
      <point x="1270" y="47" type="curve" smooth="yes"/>
      <point x="1142" y="47"/>
      <point x="1078" y="104"/>
      <point x="1053" y="137" type="curve"/>
      <point x="1043" y="127"/>
      <point x="1049" y="100"/>
      <point x="1062" y="83" type="curve"/>
      <point x="1273" y="780" type="line"/>
      <point x="1020" y="780" type="line"/>
      <point x="1162" y="722" type="line"/>
      <point x="971" y="92" type="line"/>
      <point x="1026" y="40"/>
      <point x="1126" y="-13"/>
    </contour>
    <contour>
      <point x="941" y="731" type="curve" smooth="yes"/>
      <point x="1037" y="731"/>
      <point x="1116" y="714"/>
      <point x="1168" y="698" type="curve"/>
      <point x="1182" y="746" type="line"/>
      <point x="1136" y="764"/>
      <point x="1051" y="790"/>
      <point x="943" y="790" type="curve" smooth="yes"/>
      <point x="775" y="790"/>
      <point x="698" y="744"/>
      <point x="676" y="645" type="curve" smooth="yes"/>
      <point x="483" y="-223" type="line"/>
      <point x="561" y="-223" type="line"/>
      <point x="770" y="635" type="line" smooth="yes"/>
      <point x="787" y="706"/>
      <point x="821" y="731"/>
    </contour>
    <contour>
      <point x="447" y="714" type="curve" smooth="yes"/>
      <point x="490" y="714"/>
      <point x="522" y="707"/>
      <point x="544" y="703" type="curve"/>
      <point x="560" y="765" type="line"/>
      <point x="541" y="769"/>
      <point x="499" y="775"/>
      <point x="453" y="775" type="curve" smooth="yes"/>
      <point x="325" y="775"/>
      <point x="266" y="731"/>
      <point x="244" y="630" type="curve" smooth="yes"/>
      <point x="54" y="-223" type="line"/>
      <point x="132" y="-223" type="line"/>
      <point x="338" y="620" type="line" smooth="yes"/>
      <point x="356" y="693"/>
      <point x="377" y="714"/>
    </contour>
  </outline>
</glyph>
<glyph name="f_f_j" format="2">
  <advance width="1266"/>
  <outline>
    <contour>
      <point x="93" y="565" type="line"/>
      <point x="77" y="509" type="line"/>
      <point x="580" y="509" type="line"/>
      <point x="596" y="565" type="line"/>
    </contour>
    <contour>
      <point x="132" y="-223" type="line"/>
      <point x="338" y="620" type="line" smooth="yes"/>
      <point x="356" y="693"/>
      <point x="377" y="714"/>
      <point x="447" y="714" type="curve" smooth="yes"/>
      <point x="490" y="714"/>
      <point x="522" y="707"/>
      <point x="544" y="703" type="curve"/>
      <point x="560" y="765" type="line"/>
      <point x="541" y="769"/>
      <point x="499" y="775"/>
      <point x="453" y="775" type="curve" smooth="yes"/>
      <point x="325" y="775"/>
      <point x="266" y="731"/>
      <point x="244" y="630" type="curve" smooth="yes"/>
      <point x="54" y="-223" type="line"/>
    </contour>
    <contour>
      <point x="561" y="-223" type="line"/>
      <point x="770" y="635" type="line" smooth="yes"/>
      <point x="788" y="707"/>
      <point x="809" y="729"/>
      <point x="876" y="729" type="curve" smooth="yes"/>
      <point x="919" y="729"/>
      <point x="946" y="723"/>
      <point x="969" y="719" type="curve"/>
      <point x="985" y="780" type="line"/>
      <point x="965" y="785"/>
      <point x="927" y="790"/>
      <point x="882" y="790" type="curve" smooth="yes"/>
      <point x="756" y="790"/>
      <point x="699" y="747"/>
      <point x="676" y="645" type="curve" smooth="yes"/>
      <point x="483" y="-223" type="line"/>
    </contour>
    <contour>
      <point x="1175" y="680" type="curve" smooth="yes"/>
      <point x="1220" y="680"/>
      <point x="1254" y="698"/>
      <point x="1254" y="744" type="curve" smooth="yes"/>
      <point x="1254" y="787"/>
      <point x="1220" y="806"/>
      <point x="1175" y="806" type="curve" smooth="yes"/>
      <point x="1128" y="806"/>
      <point x="1095" y="787"/>
      <point x="1095" y="744" type="curve" smooth="yes"/>
      <point x="1095" y="698"/>
      <point x="1128" y="680"/>
    </contour>
    <contour>
      <point x="521" y="565" type="line"/>
      <point x="505" y="509" type="line"/>
      <point x="945" y="509" type="line" smooth="yes"/>
      <point x="1021" y="509"/>
      <point x="1089" y="489"/>
      <point x="1083" y="466" type="curve" smooth="yes"/>
      <point x="934" y="-88" type="line" smooth="yes"/>
      <point x="913" y="-164"/>
      <point x="891" y="-192"/>
      <point x="819" y="-192" type="curve" smooth="yes"/>
      <point x="778" y="-192"/>
      <point x="742" y="-182"/>
      <point x="714" y="-172" type="curve"/>
      <point x="697" y="-230" type="line"/>
      <point x="718" y="-239"/>
      <point x="764" y="-250"/>
      <point x="816" y="-250" type="curve" smooth="yes"/>
      <point x="933" y="-250"/>
      <point x="996" y="-199"/>
      <point x="1028" y="-80" type="curve" smooth="yes"/>
      <point x="1203" y="565" type="line"/>
    </contour>
  </outline>
</glyph>
<glyph name="f_h" format="2">
  <advance width="1273"/>
  <outline>
    <contour>
      <point x="93" y="565" type="line"/>
      <point x="77" y="509" type="line"/>
      <point x="505" y="509" type="line"/>
      <point x="520" y="565" type="line"/>
    </contour>
    <contour>
      <point x="609" y="0" type="line"/>
      <point x="845" y="780" type="line"/>
      <point x="584" y="780" type="line"/>
      <point x="733" y="721" type="line"/>
      <point x="515" y="0" type="line"/>
    </contour>
    <contour>
      <point x="997" y="223" type="line" smooth="yes"/>
      <point x="962" y="117"/>
      <point x="950" y="86"/>
      <point x="950" y="57" type="curve" smooth="yes"/>
      <point x="950" y="19"/>
      <point x="986" y="0"/>
      <point x="1047" y="0" type="curve" smooth="yes"/>
      <point x="1091" y="0"/>
      <point x="1135" y="0"/>
      <point x="1179" y="0" type="curve"/>
      <point x="1191" y="57" type="line"/>
      <point x="1152" y="57"/>
      <point x="1112" y="57"/>
      <point x="1072" y="57" type="curve" smooth="yes"/>
      <point x="1054" y="57"/>
      <point x="1046" y="62"/>
      <point x="1046" y="74" type="curve" smooth="yes"/>
      <point x="1046" y="86"/>
      <point x="1056" y="121"/>
      <point x="1089" y="218" type="curve" smooth="yes"/>
      <point x="1146" y="388" type="line" smooth="yes"/>
      <point x="1161" y="430"/>
      <point x="1171" y="473"/>
      <point x="1171" y="502" type="curve" smooth="yes"/>
      <point x="1171" y="547"/>
      <point x="1131" y="575"/>
      <point x="1042" y="575" type="curve" smooth="yes"/>
      <point x="907" y="575"/>
      <point x="800" y="489"/>
      <point x="691" y="371" type="curve"/>
      <point x="701" y="339" type="line"/>
      <point x="818" y="448"/>
      <point x="906" y="512"/>
      <point x="1000" y="512" type="curve" smooth="yes"/>
      <point x="1052" y="512"/>
      <point x="1073" y="499"/>
      <point x="1073" y="474" type="curve" smooth="yes"/>
      <point x="1073" y="455"/>
      <point x="1067" y="430"/>
      <point x="1054" y="391" type="curve" smooth="yes"/>
    </contour>
    <contour>
      <point x="512" y="731" type="curve" smooth="yes"/>
      <point x="608" y="731"/>
      <point x="687" y="714"/>
      <point x="740" y="698" type="curve"/>
      <point x="753" y="746" type="line"/>
      <point x="707" y="764"/>
      <point x="622" y="790"/>
      <point x="514" y="790" type="curve" smooth="yes"/>
      <point x="346" y="790"/>
      <point x="269" y="744"/>
      <point x="247" y="645" type="curve" smooth="yes"/>
      <point x="54" y="-223" type="line"/>
      <point x="132" y="-223" type="line"/>
      <point x="341" y="635" type="line" smooth="yes"/>
      <point x="358" y="706"/>
      <point x="393" y="731"/>
    </contour>
  </outline>
</glyph>
<glyph name="f_k" format="2">
  <advance width="1200"/>
  <outline>
    <contour>
      <point x="93" y="565" type="line"/>
      <point x="77" y="509" type="line"/>
      <point x="505" y="509" type="line"/>
      <point x="520" y="565" type="line"/>
    </contour>
    <contour>
      <point x="841" y="336" type="line"/>
      <point x="992" y="79" type="line" smooth="yes"/>
      <point x="1002" y="62"/>
      <point x="1011" y="57"/>
      <point x="1043" y="57" type="curve" smooth="yes"/>
      <point x="1070" y="57"/>
      <point x="1097" y="57"/>
      <point x="1125" y="57" type="curve"/>
      <point x="1114" y="0" type="line"/>
      <point x="1081" y="0"/>
      <point x="1048" y="0"/>
      <point x="1014" y="0" type="curve" smooth="yes"/>
      <point x="943" y="0"/>
      <point x="928" y="12"/>
      <point x="900" y="61" type="curve" smooth="yes"/>
      <point x="761" y="301" type="line"/>
      <point x="762" y="306" type="line"/>
      <point x="873" y="393"/>
      <point x="983" y="478"/>
      <point x="1094" y="565" type="curve"/>
      <point x="1201" y="565" type="line"/>
      <point x="1201" y="550" type="line"/>
      <point x="1071" y="461"/>
      <point x="939" y="371"/>
      <point x="809" y="282" type="curve"/>
    </contour>
    <contour>
      <point x="608" y="0" type="line"/>
      <point x="844" y="780" type="line"/>
      <point x="604" y="780" type="line"/>
      <point x="733" y="722" type="line"/>
      <point x="515" y="0" type="line"/>
    </contour>
    <contour>
      <point x="512" y="731" type="curve" smooth="yes"/>
      <point x="608" y="731"/>
      <point x="687" y="714"/>
      <point x="740" y="698" type="curve"/>
      <point x="753" y="746" type="line"/>
      <point x="707" y="764"/>
      <point x="622" y="790"/>
      <point x="514" y="790" type="curve" smooth="yes"/>
      <point x="346" y="790"/>
      <point x="269" y="744"/>
      <point x="247" y="645" type="curve" smooth="yes"/>
      <point x="54" y="-223" type="line"/>
      <point x="132" y="-223" type="line"/>
      <point x="341" y="635" type="line" smooth="yes"/>
      <point x="358" y="706"/>
      <point x="393" y="731"/>
    </contour>
  </outline>
</glyph>
<glyph name="florin" format="2">
  <advance width="685"/>
  <outline>
    <contour>
      <point x="212" y="565" type="line"/>
      <point x="186" y="509" type="line"/>
      <point x="633" y="509" type="line"/>
      <point x="659" y="565" type="line"/>
    </contour>
    <contour>
      <point x="173" y="-90" type="curve" smooth="yes"/>
      <point x="473" y="631" type="line" smooth="yes"/>
      <point x="499" y="696"/>
      <point x="524" y="728"/>
      <point x="625" y="728" type="curve" smooth="yes"/>
      <point x="682" y="728"/>
      <point x="731" y="718"/>
      <point x="761" y="710" type="curve"/>
      <point x="783" y="770" type="line"/>
      <point x="759" y="778"/>
      <point x="700" y="790"/>
      <point x="629" y="790" type="curve" smooth="yes"/>
      <point x="493" y="790"/>
      <point x="425" y="743"/>
      <point x="389" y="655" type="curve" smooth="yes"/>
      <point x="84" y="-79" type="line" smooth="yes"/>
      <point x="51" y="-158"/>
      <point x="22" y="-188"/>
      <point x="-57" y="-188" type="curve" smooth="yes"/>
      <point x="-99" y="-188"/>
      <point x="-138" y="-179"/>
      <point x="-165" y="-172" type="curve"/>
      <point x="-185" y="-233" type="line"/>
      <point x="-158" y="-241"/>
      <point x="-113" y="-250"/>
      <point x="-63" y="-250" type="curve" smooth="yes"/>
      <point x="57" y="-250"/>
      <point x="126" y="-201"/>
    </contour>
  </outline>
</glyph>
<glyph name="grave.uc" format="2">
  <advance width="612"/>
  <anchor x="328" y="694" name="_top"/>
  <outline>
    <contour>
      <point x="418" y="793" type="line"/>
      <point x="268" y="857" type="line" smooth="yes"/>
      <point x="231" y="873"/>
      <point x="202" y="893"/>
      <point x="202" y="918" type="curve" smooth="yes"/>
      <point x="202" y="942"/>
      <point x="224" y="967"/>
      <point x="265" y="967" type="curve" smooth="yes"/>
      <point x="303" y="967"/>
      <point x="322" y="946"/>
      <point x="353" y="917" type="curve" smooth="yes"/>
      <point x="460" y="818" type="line"/>
      <point x="458" y="793" type="line"/>
    </contour>
  </outline>
</glyph>
<glyph name="nine.oldprop" format="2">
  <advance width="712"/>
  <outline>
    <contour>
      <point x="23" y="-87" type="line"/>
      <point x="266" y="-77"/>
      <point x="414" y="2"/>
      <point x="491" y="120" type="curve" smooth="yes"/>
      <point x="543" y="198"/>
      <point x="563" y="293"/>
      <point x="563" y="396" type="curve" smooth="yes"/>
      <point x="563" y="516"/>
      <point x="503" y="553"/>
      <point x="388" y="553" type="curve" smooth="yes"/>
      <point x="285" y="553"/>
      <point x="220" y="507"/>
      <point x="186" y="439" type="curve" smooth="yes"/>
      <point x="168" y="402"/>
      <point x="159" y="360"/>
      <point x="159" y="315" type="curve" smooth="yes"/>
      <point x="159" y="247"/>
      <point x="204" y="196"/>
      <point x="309" y="196" type="curve" smooth="yes"/>
      <point x="426" y="196"/>
      <point x="485" y="256"/>
      <point x="571" y="347" type="curve"/>
      <point x="567" y="299" type="line"/>
      <point x="497" y="213"/>
      <point x="414" y="141"/>
      <point x="288" y="141" type="curve" smooth="yes"/>
      <point x="145" y="141"/>
      <point x="59" y="216"/>
      <point x="59" y="322" type="curve" smooth="yes"/>
      <point x="59" y="451"/>
      <point x="165" y="608"/>
      <point x="391" y="608" type="curve"/>
      <point x="563" y="608"/>
      <point x="661" y="539"/>
      <point x="661" y="385" type="curve" smooth="yes"/>
      <point x="661" y="83"/>
      <point x="443" y="-130"/>
      <point x="20" y="-142" type="curve"/>
    </contour>
  </outline>
</glyph>
<glyph name="plus.sup" format="2">
  <advance width="516"/>
  <outline>
    <contour>
      <point x="323" y="732" type="line"/>
      <point x="222" y="402" type="line"/>
      <point x="289" y="402" type="line"/>
      <point x="390" y="732" type="line"/>
    </contour>
    <contour>
      <point x="510" y="591" type="line"/>
      <point x="116" y="591" type="line"/>
      <point x="101" y="543" type="line"/>
      <point x="495" y="543" type="line"/>
    </contour>
  </outline>
</glyph>
<glyph name="rupeeIndian.proportional" format="2">
  <advance width="704"/>
  <outline>
    <contour>
      <point x="329" y="0" type="line"/>
      <point x="470" y="0" type="line"/>
      <point x="488" y="56" type="line"/>
      <point x="445" y="56" type="line" smooth="yes"/>
      <point x="399" y="56"/>
      <point x="385" y="65"/>
      <point x="364" y="84" type="curve" smooth="yes"/>
      <point x="142" y="292" type="line"/>
      <point x="109" y="275" type="line"/>
      <point x="180" y="275" type="line" smooth="yes"/>
      <point x="396" y="275"/>
      <point x="545" y="362"/>
      <point x="545" y="509" type="curve" smooth="yes"/>
      <point x="545" y="589"/>
      <point x="482" y="656"/>
      <point x="342" y="672" type="curve"/>
      <point x="320" y="662" type="line"/>
      <point x="756" y="662" type="line"/>
      <point x="771" y="710" type="line"/>
      <point x="167" y="710" type="line"/>
      <point x="148" y="651" type="line"/>
      <point x="280" y="651" type="line"/>
      <point x="405" y="651"/>
      <point x="453" y="599"/>
      <point x="453" y="519" type="curve" smooth="yes"/>
      <point x="453" y="404"/>
      <point x="383" y="314"/>
      <point x="197" y="314" type="curve" smooth="yes"/>
      <point x="61" y="314" type="line"/>
      <point x="48" y="271" type="line"/>
    </contour>
    <contour>
      <point x="104" y="509" type="line"/>
      <point x="90" y="461" type="line"/>
      <point x="696" y="461" type="line"/>
      <point x="710" y="509" type="line"/>
    </contour>
  </outline>
</glyph>
<glyph name="seven.linprop" format="2">
  <advance width="694"/>
  <outline>
    <contour>
      <point x="380" y="643" type="line" smooth="yes"/>
      <point x="274" y="643"/>
      <point x="229" y="636"/>
      <point x="214" y="600" type="curve" smooth="yes"/>
      <point x="171" y="495" type="line"/>
      <point x="98" y="495" type="line"/>
      <point x="164" y="710" type="line"/>
      <point x="741" y="710" type="line"/>
      <point x="720" y="640" type="line"/>
      <point x="497" y="476"/>
      <point x="356" y="338"/>
      <point x="247" y="0" type="curve"/>
      <point x="142" y="0" type="line"/>
      <point x="259" y="339"/>
      <point x="525" y="572"/>
      <point x="668" y="656" type="curve"/>
      <point x="676" y="643" type="line"/>
    </contour>
  </outline>
</glyph>
<glyph name="six.lintab" format="2">
  <advance width="686"/>
  <outline>
    <contour>
      <point x="296" y="-10" type="curve" smooth="yes"/>
      <point x="506" y="-10"/>
      <point x="610" y="147"/>
      <point x="610" y="295" type="curve" smooth="yes"/>
      <point x="610" y="402"/>
      <point x="542" y="468"/>
      <point x="415" y="468" type="curve" smooth="yes"/>
      <point x="296" y="468"/>
      <point x="217" y="412"/>
      <point x="130" y="300" type="curve"/>
      <point x="125" y="244" type="line"/>
      <point x="230" y="374"/>
      <point x="294" y="413"/>
      <point x="387" y="413" type="curve" smooth="yes"/>
      <point x="469" y="413"/>
      <point x="510" y="369"/>
      <point x="510" y="299" type="curve" smooth="yes"/>
      <point x="510" y="256"/>
      <point x="502" y="213"/>
      <point x="487" y="175" type="curve" smooth="yes"/>
      <point x="455" y="100"/>
      <point x="394" y="45"/>
      <point x="299" y="45" type="curve" smooth="yes"/>
      <point x="197" y="45"/>
      <point x="137" y="94"/>
      <point x="137" y="194" type="curve" smooth="yes"/>
      <point x="137" y="249"/>
      <point x="145" y="320"/>
      <point x="171" y="389" type="curve" smooth="yes"/>
      <point x="227" y="537"/>
      <point x="364" y="678"/>
      <point x="673" y="681" type="curve"/>
      <point x="681" y="740" type="line"/>
      <point x="218" y="732"/>
      <point x="42" y="458"/>
      <point x="42" y="203" type="curve" smooth="yes"/>
      <point x="42" y="69"/>
      <point x="134" y="-10"/>
    </contour>
  </outline>
</glyph>
<glyph name="six.oldprop" format="2">
  <advance width="712"/>
  <outline>
    <contour>
      <point x="694" y="685" type="curve"/>
      <point x="698" y="740" type="line"/>
      <point x="271" y="722"/>
      <point x="52" y="494"/>
      <point x="52" y="207" type="curve" smooth="yes"/>
      <point x="52" y="63"/>
      <point x="158" y="-10"/>
      <point x="320" y="-10" type="curve" smooth="yes"/>
      <point x="553" y="-10"/>
      <point x="657" y="159"/>
      <point x="657" y="293" type="curve" smooth="yes"/>
      <point x="657" y="403"/>
      <point x="579" y="468"/>
      <point x="435" y="468" type="curve" smooth="yes"/>
      <point x="310" y="468"/>
      <point x="216" y="396"/>
      <point x="146" y="311" type="curve"/>
      <point x="142" y="263" type="line"/>
      <point x="229" y="353"/>
      <point x="298" y="413"/>
      <point x="414" y="413" type="curve" smooth="yes"/>
      <point x="519" y="413"/>
      <point x="557" y="371"/>
      <point x="557" y="301" type="curve" smooth="yes"/>
      <point x="557" y="252"/>
      <point x="547" y="204"/>
      <point x="526" y="164" type="curve" smooth="yes"/>
      <point x="493" y="94"/>
      <point x="427" y="45"/>
      <point x="323" y="45" type="curve" smooth="yes"/>
      <point x="215" y="45"/>
      <point x="150" y="86"/>
      <point x="150" y="196" type="curve" smooth="yes"/>
      <point x="150" y="290"/>
      <point x="169" y="382"/>
      <point x="218" y="460" type="curve" smooth="yes"/>
      <point x="296" y="582"/>
      <point x="444" y="671"/>
    </contour>
  </outline>
</glyph>
<glyph name="sterling.alt" format="2">
  <advance width="686"/>
  <outline>
    <contour>
      <point x="-40" y="0" type="line"/>
      <point x="552" y="0" type="line"/>
      <point x="619" y="224" type="line"/>
      <point x="547" y="224" type="line"/>
      <point x="493" y="108" type="line" smooth="yes"/>
      <point x="476" y="72"/>
      <point x="432" y="63"/>
      <point x="326" y="63" type="curve" smooth="yes"/>
      <point x="10" y="63" type="line"/>
      <point x="38" y="44" type="line"/>
      <point x="213" y="104"/>
      <point x="290" y="207"/>
      <point x="290" y="312" type="curve" smooth="yes"/>
      <point x="290" y="401"/>
      <point x="256" y="461"/>
      <point x="256" y="534" type="curve" smooth="yes"/>
      <point x="256" y="628"/>
      <point x="313" y="681"/>
      <point x="449" y="681" type="curve" smooth="yes"/>
      <point x="546" y="681"/>
      <point x="607" y="664"/>
      <point x="646" y="635" type="curve"/>
      <point x="642" y="652"/>
      <point x="624" y="681"/>
      <point x="591" y="686" type="curve"/>
      <point x="541" y="529" type="line"/>
      <point x="641" y="529" type="line"/>
      <point x="690" y="689" type="line"/>
      <point x="657" y="707"/>
      <point x="579" y="735"/>
      <point x="449" y="735" type="curve" smooth="yes"/>
      <point x="262" y="735"/>
      <point x="157" y="658"/>
      <point x="157" y="537" type="curve" smooth="yes"/>
      <point x="157" y="458"/>
      <point x="203" y="393"/>
      <point x="203" y="292" type="curve" smooth="yes"/>
      <point x="203" y="192"/>
      <point x="118" y="112"/>
      <point x="-21" y="64" type="curve"/>
    </contour>
    <contour>
      <point x="54" y="379" type="line"/>
      <point x="38" y="325" type="line"/>
      <point x="507" y="325" type="line"/>
      <point x="523" y="379" type="line"/>
    </contour>
  </outline>
</glyph>
<glyph name="two.linprop" format="2">
  <advance width="715"/>
  <outline>
    <contour>
      <point x="350" y="62" type="line" smooth="yes"/>
      <point x="450" y="62"/>
      <point x="492" y="69"/>
      <point x="506" y="103" type="curve" smooth="yes"/>
      <point x="547" y="202" type="line"/>
      <point x="620" y="202" type="line"/>
      <point x="563" y="0" type="line"/>
      <point x="-45" y="0" type="line"/>
      <point x="-19" y="83" type="line"/>
      <point x="384" y="303"/>
      <point x="578" y="382"/>
      <point x="578" y="567" type="curve" smooth="yes"/>
      <point x="578" y="650"/>
      <point x="528" y="680"/>
      <point x="412" y="680" type="curve" smooth="yes"/>
      <point x="323" y="680"/>
      <point x="248" y="654"/>
      <point x="207" y="626" type="curve"/>
      <point x="214" y="650"/>
      <point x="268" y="678"/>
      <point x="267" y="661" type="curve"/>
      <point x="225" y="522" type="line"/>
      <point x="124" y="522" type="line"/>
      <point x="171" y="675" type="line"/>
      <point x="212" y="699"/>
      <point x="311" y="735"/>
      <point x="421" y="735" type="curve" smooth="yes"/>
      <point x="591" y="735"/>
      <point x="679" y="678"/>
      <point x="679" y="569" type="curve" smooth="yes"/>
      <point x="679" y="357"/>
      <point x="363" y="231"/>
      <point x="9" y="39" type="curve"/>
      <point x="9" y="62" type="line"/>
    </contour>
  </outline>
</glyph>
<glyph name="two.lintab" format="2">
  <advance width="686"/>
  <outline>
    <contour>
      <point x="-48" y="0" type="line"/>
      <point x="-23" y="83" type="line"/>
      <point x="356" y="309"/>
      <point x="541" y="398"/>
      <point x="541" y="574" type="curve" smooth="yes"/>
      <point x="541" y="651"/>
      <point x="485" y="680"/>
      <point x="391" y="680" type="curve" smooth="yes"/>
      <point x="304" y="680"/>
      <point x="232" y="657"/>
      <point x="189" y="628" type="curve"/>
      <point x="200" y="654"/>
      <point x="214" y="670"/>
      <point x="253" y="668" type="curve"/>
      <point x="209" y="525" type="line"/>
      <point x="108" y="525" type="line"/>
      <point x="153" y="671" type="line"/>
      <point x="195" y="697"/>
      <point x="286" y="735"/>
      <point x="394" y="735" type="curve" smooth="yes"/>
      <point x="553" y="735"/>
      <point x="642" y="680"/>
      <point x="642" y="573" type="curve" smooth="yes"/>
      <point x="642" y="375"/>
      <point x="345" y="236"/>
      <point x="7" y="40" type="curve"/>
      <point x="5" y="62" type="line"/>
      <point x="312" y="62" type="line" smooth="yes"/>
      <point x="412" y="62"/>
      <point x="454" y="69"/>
      <point x="469" y="103" type="curve" smooth="yes"/>
      <point x="514" y="210" type="line"/>
      <point x="586" y="210" type="line"/>
      <point x="526" y="0" type="line"/>
    </contour>
  </outline>
</glyph>
<glyph name="two.oldprop" format="2">
  <advance width="720"/>
  <outline>
    <contour>
      <point x="622" y="65" type="line"/>
      <point x="57" y="65" type="line"/>
      <point x="56" y="44" type="line"/>
      <point x="403" y="188"/>
      <point x="657" y="263"/>
      <point x="657" y="444" type="curve" smooth="yes"/>
      <point x="657" y="558"/>
      <point x="571" y="608"/>
      <point x="405" y="608" type="curve" smooth="yes"/>
      <point x="301" y="608"/>
      <point x="210" y="572"/>
      <point x="164" y="547" type="curve"/>
      <point x="119" y="398" type="line"/>
      <point x="219" y="398" type="line"/>
      <point x="263" y="538" type="line"/>
      <point x="257" y="555"/>
      <point x="212" y="525"/>
      <point x="201" y="502" type="curve"/>
      <point x="246" y="529"/>
      <point x="313" y="553"/>
      <point x="399" y="553" type="curve" smooth="yes"/>
      <point x="515" y="553"/>
      <point x="555" y="525"/>
      <point x="555" y="443" type="curve" smooth="yes"/>
      <point x="555" y="291"/>
      <point x="418" y="249"/>
      <point x="25" y="83" type="curve"/>
      <point x="0" y="0" type="line"/>
      <point x="605" y="0" type="line"/>
    </contour>
  </outline>
</glyph>
<glyph name="two.oldtab" format="2">
  <advance width="686"/>
  <outline>
    <contour>
      <point x="584" y="65" type="line"/>
      <point x="48" y="65" type="line"/>
      <point x="54" y="45" type="line"/>
      <point x="385" y="188"/>
      <point x="632" y="278"/>
      <point x="632" y="455" type="curve" smooth="yes"/>
      <point x="632" y="569"/>
      <point x="537" y="608"/>
      <point x="396" y="608" type="curve" smooth="yes"/>
      <point x="300" y="608"/>
      <point x="210" y="576"/>
      <point x="170" y="555" type="curve"/>
      <point x="121" y="397" type="line"/>
      <point x="222" y="397" type="line"/>
      <point x="268" y="549" type="line"/>
      <point x="266" y="558"/>
      <point x="214" y="530"/>
      <point x="204" y="513" type="curve"/>
      <point x="244" y="534"/>
      <point x="303" y="553"/>
      <point x="392" y="553" type="curve" smooth="yes"/>
      <point x="483" y="553"/>
      <point x="531" y="532"/>
      <point x="531" y="453" type="curve" smooth="yes"/>
      <point x="531" y="308"/>
      <point x="408" y="254"/>
      <point x="23" y="86" type="curve"/>
      <point x="-2" y="0" type="line"/>
      <point x="566" y="0" type="line"/>
    </contour>
  </outline>
</glyph>
<glyph name="uni20B4.proportional" format="2">
  <advance width="810"/>
  <outline>
    <contour>
      <point x="617" y="446" type="line"/>
      <point x="678" y="477"/>
      <point x="737" y="531"/>
      <point x="737" y="600" type="curve" smooth="yes"/>
      <point x="737" y="687"/>
      <point x="657" y="730"/>
      <point x="500" y="730" type="curve"/>
      <point x="392" y="730"/>
      <point x="314" y="705"/>
      <point x="267" y="687" type="curve"/>
      <point x="236" y="577" type="line"/>
      <point x="338" y="577" type="line"/>
      <point x="368" y="679" type="line"/>
      <point x="341" y="676"/>
      <point x="302" y="653"/>
      <point x="301" y="640" type="curve"/>
      <point x="345" y="659"/>
      <point x="404" y="677"/>
      <point x="492" y="677" type="curve" smooth="yes"/>
      <point x="599" y="677"/>
      <point x="645" y="652"/>
      <point x="645" y="599" type="curve" smooth="yes"/>
      <point x="645" y="542"/>
      <point x="599" y="503"/>
      <point x="522" y="468" type="curve"/>
    </contour>
    <contour>
      <point x="367" y="-10" type="curve"/>
      <point x="487" y="-10"/>
      <point x="574" y="19"/>
      <point x="616" y="34" type="curve"/>
      <point x="650" y="159" type="line"/>
      <point x="544" y="159" type="line"/>
      <point x="510" y="41" type="line"/>
      <point x="554" y="48"/>
      <point x="581" y="76"/>
      <point x="578" y="84" type="curve"/>
      <point x="526" y="63"/>
      <point x="463" y="44"/>
      <point x="373" y="44" type="curve" smooth="yes"/>
      <point x="272" y="44"/>
      <point x="204" y="69"/>
      <point x="204" y="140" type="curve" smooth="yes"/>
      <point x="204" y="206"/>
      <point x="246" y="251"/>
      <point x="331" y="278" type="curve"/>
      <point x="203" y="285" type="line"/>
      <point x="148" y="255"/>
      <point x="107" y="213"/>
      <point x="107" y="142" type="curve" smooth="yes"/>
      <point x="107" y="41"/>
      <point x="206" y="-10"/>
    </contour>
    <contour>
      <point x="59" y="303" type="line"/>
      <point x="43" y="249" type="line"/>
      <point x="713" y="249" type="line"/>
      <point x="729" y="303" type="line"/>
    </contour>
    <contour>
      <point x="114" y="485" type="line"/>
      <point x="98" y="431" type="line"/>
      <point x="768" y="431" type="line"/>
      <point x="785" y="485" type="line"/>
    </contour>
  </outline>
</glyph>
<glyph name="zero.oldtab" format="2">
  <advance width="686"/>
  <outline>
    <contour>
      <point x="294" y="-11" type="curve"/>
      <point x="530" y="-11"/>
      <point x="635" y="212"/>
      <point x="635" y="396" type="curve" smooth="yes"/>
      <point x="635" y="527"/>
      <point x="552" y="608"/>
      <point x="393" y="608" type="curve"/>
      <point x="158" y="608"/>
      <point x="52" y="385"/>
      <point x="52" y="201" type="curve" smooth="yes"/>
      <point x="52" y="70"/>
      <point x="134" y="-11"/>
    </contour>
    <contour>
      <point x="297" y="42" type="curve" smooth="yes"/>
      <point x="188" y="42"/>
      <point x="147" y="89"/>
      <point x="147" y="178" type="curve" smooth="yes"/>
      <point x="147" y="219"/>
      <point x="152" y="260"/>
      <point x="168" y="318" type="curve" smooth="yes"/>
      <point x="211" y="478"/>
      <point x="274" y="555"/>
      <point x="389" y="555" type="curve" smooth="yes"/>
      <point x="498" y="555"/>
      <point x="540" y="509"/>
      <point x="540" y="419" type="curve" smooth="yes"/>
      <point x="540" y="379"/>
      <point x="535" y="337"/>
      <point x="518" y="279" type="curve" smooth="yes"/>
      <point x="476" y="119"/>
      <point x="413" y="42"/>
    </contour>
  </outline>
</glyph>
